<?xml version="1.0" standalone="no"?>
<!DOCTYPE svg PUBLIC "-//W3C//DTD SVG 1.1//EN" "http://www.w3.org/Graphics/SVG/1.1/DTD/svg11.dtd" >
<svg xmlns="http://www.w3.org/2000/svg">
<metadata>
Created by FontPrep 20130207 at Fri May 16 16:39:13 2014
 By Jackey Chen
Copyright (c) 1991 Adobe Systems Incorporated. All Rights Reserved.Plantin is a trademark of The Monotype Corporation Plc. registered in the US Patent and TM Office and elsewhere.
</metadata>
<defs>
<font id="1347afb31187b9dae3631d4404f8fc3c" horiz-adv-x='1024' >
  <font-face 
    font-family="Plantin-Light"
    font-weight="300"
    font-stretch="normal"
    units-per-em="2048"
    panose-1="2 0 5 3 8 0 0 2 0 3"
    ascent="1638"
    descent="-410"
    x-height="922"
    cap-height="1397"
    bbox="-362 -512 2238 1864"
    underline-thickness="102"
    underline-position="-102"
    unicode-range="U+0020-FB02"
  />
<missing-glyph horiz-adv-x="552" 
 />
    <glyph glyph-name="fi" unicode="fi" horiz-adv-x="1173" 
d="M752 922q120 0 192 20h39v-719q0 -100 29.5 -135t122.5 -35v-53h-457v53q89 0 117 39t28 135v488q0 78 -26.5 105.5t-100.5 27.5h-327v-623q0 -98 30 -135t123 -37v-53h-459v53q87 4 116.5 36t29.5 147v612h-170v74h63q64 0 83 19t25.5 57t26 126t92.5 161
q136 136 347 136q98 0 160.5 -25.5t91 -54t28.5 -66.5t-21 -61.5t-59 -23.5t-63 25.5t-50.5 55t-60 55.5t-97.5 26q-120 0 -178 -84.5t-58 -223.5v-122h383z" />
    <glyph glyph-name="fl" unicode="fl" horiz-adv-x="1173" 
d="M985 1421v-1202q0 -92 28.5 -130t121.5 -36v-53h-457v53q89 0 118 38t29 145v612h-456v-625q0 -98 30.5 -134t122.5 -36v-53h-459v53q87 0 116.5 35t29.5 143v617h-170v74h63q64 0 84 20t25.5 56t23 123t87.5 157q143 143 352 143q80 0 174 -26q77 15 98 26h39zM608 1352
q-121 0 -180 -81t-59 -212v-137h456v286q-23 12 -39 35t-48 55t-57.5 43t-72.5 11z" />
    <glyph glyph-name=".notdef" horiz-adv-x="552" 
 />
    <glyph glyph-name=".null" horiz-adv-x="0" 
 />
    <glyph glyph-name="nonmarkingreturn" horiz-adv-x="552" 
 />
    <glyph glyph-name="space" unicode=" " horiz-adv-x="552" 
 />
    <glyph glyph-name="space" unicode="&#xa0;" horiz-adv-x="552" 
 />
    <glyph glyph-name="exclam" unicode="!" horiz-adv-x="555" 
d="M295 1427q86 1 86 -57q0 -48 -6 -96l-80 -889h-55l-66 893q-2 29 -2 32v55q0 62 88 62h35zM166 90q0 47 32.5 80t80 33t80 -33t32.5 -80t-32.5 -80t-80 -33t-80 33t-32.5 80z" />
    <glyph glyph-name="quotedbl" unicode="&#x22;" horiz-adv-x="659" 
d="M420 1245q0 53 32 87t84 34t85.5 -34t33.5 -92t-22 -161l-74 -327h-45l-72 327q-22 113 -22 166zM6 1247q0 51 33 85t84 34t85 -34t34 -92t-23 -161l-74 -327h-45l-71 327q-23 117 -23 168z" />
    <glyph glyph-name="numbersign" unicode="#" horiz-adv-x="1368" 
d="M1274 987v-104h-227l-82 -387h309v-105h-330l-86 -411h-104l86 411h-437l-86 -411h-104l86 411h-207v105h227l82 387h-309v104h332l84 410h104l-84 -410h435l86 410h104l-84 -410h205zM506 883l-82 -387h436l82 387h-436z" />
    <glyph glyph-name="dollar" unicode="$" horiz-adv-x="1130" 
d="M570 -25q-56 0 -128 13v-209h-59v219q-171 36 -215.5 116t-44.5 114t23.5 59.5t62.5 25.5t56.5 -29.5t28.5 -68.5t28.5 -78t60.5 -57v592q-135 66 -190.5 144.5t-55.5 191.5q0 248 246 331v82h59v-69q63 14 68 14h53q57 0 115 -14v69h59v-84q106 -33 174 -94t68 -127
q0 -29 -20.5 -49t-58.5 -20t-59.5 26.5t-35.5 61t-27.5 69.5t-40.5 51v-522q145 -70 210 -157.5t65 -211.5t-73 -222.5t-202 -141.5v-221h-59v209q-52 -13 -108 -13zM240 1062q0 -68 33.5 -116.5t109.5 -89.5v418q-68 -29 -105.5 -86.5t-37.5 -125.5zM557 1307
q-57 0 -115 -15v-456q53 -20 108.5 -37t127.5 -43v528q-64 23 -121 23zM566 35q54 0 112 12v522q-142 54 -236 82v-596q70 -20 124 -20zM907 307q0 149 -170 236v-475q80 35 125 99t45 140z" />
    <glyph glyph-name="percent" unicode="%" horiz-adv-x="1622" 
d="M1001 335q0 159 74 253t198 94t198.5 -94t74.5 -253t-74.5 -253t-198.5 -94t-198 94t-74 253zM1116 335q0 -161 37 -231.5t121 -70.5t121 70.5t37 231.5t-37 231.5t-121 70.5t-121 -70.5t-37 -231.5zM76 1007q0 159 73.5 253t197.5 94t199 -95t75 -253t-75 -252.5
t-199 -94.5t-197.5 94.5t-73.5 253.5zM190 1007q0 -161 37 -231.5t121 -70.5t121 70.5t37 231.5t-37 231.5t-121 70.5t-121 -70.5t-37 -231.5zM1227 1421h86l-918 -1507h-88z" />
    <glyph glyph-name="ampersand" unicode="&#x26;" horiz-adv-x="1515" 
d="M1468 897v-57q-70 -7 -136 -73q-34 -34 -59.5 -81t-80.5 -156t-121 -192q58 -106 136 -185t149 -83t92.5 -8t21.5 -34t-34 -41.5t-104 -11.5q-134 0 -215 45t-171 168q-221 -213 -475 -213q-166 0 -284.5 106.5t-118.5 260.5q0 88 46 182t154 166l193 127
q-156 178 -156 260q0 55 37 119t99 115t127 80.5t111 29.5q96 0 184.5 -86.5t88.5 -161.5t-60.5 -134.5t-229.5 -170.5q222 -222 372 -477q103 137 124.5 221t21.5 120t-31 65.5t-100 42.5v57h419zM252 431q0 -52 29.5 -112.5t110 -138.5t206.5 -78q159 0 307 144
q-160 238 -242.5 340t-154.5 180q-145 -104 -188.5 -157.5t-55.5 -89.5t-12 -88zM809 1143q0 57 -66.5 123.5t-120.5 66.5t-118 -57.5t-64 -120.5q0 -64 88 -151l90 -91q156 117 173.5 160t17.5 70z" />
    <glyph glyph-name="quotesingle" unicode="'" horiz-adv-x="329" 
d="M47 1247q0 51 33 85t84 34t85 -34t34 -92t-23 -161l-74 -327h-45l-71 327q-23 117 -23 168z" />
    <glyph glyph-name="parenleft" unicode="(" horiz-adv-x="831" 
d="M338 505q0 -261 126 -486.5t322 -354.5l-43 -61q-221 126 -369.5 368t-148.5 529q0 476 203 663t315 256l43 -59q-314 -227 -381 -472t-67 -383z" />
    <glyph glyph-name="parenright" unicode=")" horiz-adv-x="831" 
d="M606 500q0 -286 -147.5 -529t-370.5 -368l-43 61q194 126 321.5 352.5t127.5 483.5q0 407 -177.5 599.5t-271.5 260.5l43 59q518 -321 518 -919z" />
    <glyph glyph-name="asterisk" unicode="*" horiz-adv-x="1044" 
d="M553 1427l72 -346l338 41l18 -53l-305 -164l145 -319l-43 -33l-254 246l-256 -246l-43 33l148 319l-307 164l16 53l350 -41l68 346h53z" />
    <glyph glyph-name="plus" unicode="+" horiz-adv-x="1366" 
d="M629 594v485h108v-485h486v-109h-486v-485h-108v485h-486v109h486z" />
    <glyph glyph-name="comma" unicode="," horiz-adv-x="555" 
d="M365 -29q0 63 -38 95t-73 32q-129 0 -129 104q0 52 34 82.5t82 30.5q91 0 152.5 -83.5t61.5 -177.5q0 -168 -111 -266.5t-287 -102.5v53q141 10 224.5 72.5t83.5 160.5z" />
    <glyph glyph-name="hyphen" unicode="-" horiz-adv-x="768" 
d="M692 537v-148h-614v148h614z" />
    <glyph glyph-name="hyphen" unicode="&#xad;" horiz-adv-x="768" 
d="M692 537v-148h-614v148h614z" />
    <glyph glyph-name="period" unicode="." horiz-adv-x="555" 
d="M278.5 203q47.5 0 80 -33t32.5 -80t-32.5 -80t-80 -33t-80 33t-32.5 80t32.5 80t80 33z" />
    <glyph glyph-name="slash" unicode="/" horiz-adv-x="546" 
d="M547 1421l-459 -1697h-88l459 1697h88z" />
    <glyph glyph-name="zero" unicode="0" horiz-adv-x="1110" 
d="M555 1366q72 0 202 -55.5t191.5 -250t61.5 -375.5t-38 -332.5t-145 -258.5q-119 -119 -284 -119q-86 0 -157 43t-114 86q-174 174 -174 569t185 576q117 117 272 117zM555 1300q-283 0 -283 -570q0 -258 37.5 -473.5t250.5 -215.5q89 0 158 69t93.5 211t24.5 355
t-31 381.5t-116 205.5t-134 37z" />
    <glyph glyph-name="one" unicode="1" horiz-adv-x="1110" 
d="M643 1364v-1126q0 -113 37.5 -145.5t157.5 -26.5v-66h-541v66q120 -4 146 19.5t33 60t7 100.5v723q0 86 -31.5 117.5t-84.5 31.5h-95v66q201 68 306 180h65z" />
    <glyph glyph-name="two" unicode="2" horiz-adv-x="1110" 
d="M578 1366q159 0 264.5 -102.5t105.5 -251.5q0 -230 -354 -557l-330 -308h502q67 0 102.5 35.5t75.5 147.5h70l-113 -330h-799v74l400 399q147 147 209.5 282t62.5 207q0 125 -82.5 197t-228.5 72t-289 -137l-45 43q157 179 265 204t184 25z" />
    <glyph glyph-name="three" unicode="3" horiz-adv-x="1110" 
d="M150 1176q156 190 366 190q184 0 274.5 -86t90.5 -186q0 -205 -215 -287v-4q139 -37 215.5 -127t76.5 -215q0 -80 -31.5 -166t-143.5 -203t-382 -117q-122 0 -185.5 25t-86.5 45.5t-23 41.5t24 50t47 29t53 -18.5t139 -78.5t229 1.5t154 160.5t34 177q0 260 -315 260
q-103 0 -223 -19l12 64q220 15 334.5 114t114.5 222q0 81 -70 140.5t-178 59.5q-145 0 -271 -119z" />
    <glyph glyph-name="four" unicode="4" horiz-adv-x="1110" 
d="M66 324v116l663 924h98v-909h201v-131h-201v-349h-159v349h-602zM668 1169h-4l-510 -714h514v714z" />
    <glyph glyph-name="five" unicode="5" horiz-adv-x="1110" 
d="M940 463q0 -61 -25.5 -145.5t-89 -160t-170.5 -129t-243 -53.5t-211.5 22.5t-75.5 59.5t38 65t52 28t43 -12.5t102 -39t150 -26.5q143 0 230 89.5t87 220.5t-106 239q-73 73 -192 121.5t-339 88.5l232 512h473l27 43l55 -32l-82 -148h-463l-104 -227q293 -43 452.5 -177
t159.5 -339z" />
    <glyph glyph-name="six" unicode="6" horiz-adv-x="1110" 
d="M299 707q159 127 328 127q168 0 278.5 -120t110.5 -297t-132.5 -309.5t-330.5 -132.5t-323.5 152t-125.5 401q0 355 215.5 573.5t550.5 262.5l58 -49q-421 -132 -516 -324t-113 -284zM279 497q0 -84 21.5 -172.5t80 -186t184.5 -97.5t201.5 101t75.5 246t-81.5 238.5
t-206.5 93.5q-124 0 -269 -102q-6 -37 -6 -121z" />
    <glyph glyph-name="seven" unicode="7" horiz-adv-x="1110" 
d="M365 1196q-89 0 -126.5 -37.5t-68.5 -146.5h-64l89 331h827l-545 -1368h-86l488 1221h-514z" />
    <glyph glyph-name="eight" unicode="8" horiz-adv-x="1110" 
d="M104 1022q0 138 119 241t323 103t312.5 -87.5t108.5 -199.5q0 -77 -66 -152t-256 -204q288 -167 323.5 -261.5t35.5 -157.5t-34 -125t-128 -133t-304 -71t-325 98t-115 220q0 91 63.5 161.5t272.5 200.5q-330 171 -330 367zM246 293q0 -109 90 -180.5t223 -71.5t211 75.5
t78 161.5t-69.5 154t-286.5 189q-246 -194 -246 -328zM831 1067q0 99 -80.5 166t-207.5 67t-213 -65t-86 -162q0 -61 62.5 -121t281.5 -192q243 161 243 307z" />
    <glyph glyph-name="nine" unicode="9" horiz-adv-x="1110" 
d="M817 633q-159 -127 -328 -127t-279 119.5t-110 297.5t132.5 310.5t330.5 132.5t323.5 -152.5t125.5 -404.5q0 -337 -206 -560.5t-560 -273.5l-58 50q281 88 438.5 248.5t190.5 359.5zM838 845q0 81 -21.5 170t-81.5 187t-185 98t-200.5 -99t-75.5 -246t82 -242t206 -95
t269 103q7 43 7 124z" />
    <glyph glyph-name="colon" unicode=":" horiz-adv-x="555" 
d="M278.5 942q47.5 0 80 -32.5t32.5 -80t-32.5 -80t-80 -32.5t-80 32.5t-32.5 80t32.5 80t80 32.5zM278.5 203q47.5 0 80 -33t32.5 -80t-32.5 -80t-80 -33t-80 33t-32.5 80t32.5 80t80 33z" />
    <glyph glyph-name="semicolon" unicode=";" horiz-adv-x="555" 
d="M365 -29q0 63 -38 95t-73 32q-129 0 -129 104q0 52 34 82.5t82 30.5q91 0 152.5 -83.5t61.5 -177.5q0 -168 -111 -266.5t-287 -102.5v53q141 10 224.5 72.5t83.5 160.5zM278.5 942q47.5 0 80 -32.5t32.5 -80t-32.5 -80t-80 -32.5t-80 32.5t-32.5 80t32.5 80t80 32.5z" />
    <glyph glyph-name="semicolon" unicode="&#x37e;" horiz-adv-x="555" 
d="M365 -29q0 63 -38 95t-73 32q-129 0 -129 104q0 52 34 82.5t82 30.5q91 0 152.5 -83.5t61.5 -177.5q0 -168 -111 -266.5t-287 -102.5v53q141 10 224.5 72.5t83.5 160.5zM278.5 942q47.5 0 80 -32.5t32.5 -80t-32.5 -80t-80 -32.5t-80 32.5t-32.5 80t32.5 80t80 32.5z" />
    <glyph glyph-name="less" unicode="&#x3c;" horiz-adv-x="1366" 
d="M1221 156v-117l-1078 455v96l1078 454v-116l-934 -387z" />
    <glyph glyph-name="equal" unicode="=" horiz-adv-x="1366" 
d="M1223 831v-108h-1080v108h1080zM1223 365v-109h-1080v109h1080z" />
    <glyph glyph-name="greater" unicode="&#x3e;" horiz-adv-x="1366" 
d="M143 928v116l1078 -454v-96l-1078 -455v117l934 387z" />
    <glyph glyph-name="question" unicode="?" horiz-adv-x="874" 
d="M264 645.5q0 22.5 29 36.5t73 29.5t167.5 58t123.5 180.5q0 121 -81.5 224.5t-180.5 103.5q-61 0 -129.5 -23.5t-81.5 -23.5q-51 0 -51 62t50.5 98t118.5 36t122.5 -30.5t129.5 -106t144.5 -209.5t69.5 -228q0 -93 -82 -175q-46 -46 -119 -75.5t-109 -45t-60 -39.5
q-44 -44 -52 -164h-57q10 47 -1.5 120t-17.5 111t-6 60.5zM213 90q0 47 33 80t80 33t79.5 -33t32.5 -80t-32.5 -80t-79.5 -33t-80 33t-33 80z" />
    <glyph glyph-name="at" unicode="@" horiz-adv-x="1878" 
d="M1200 196q0 -85 87 -85q42 0 111.5 39.5t119.5 93.5q88 97 137 232.5t49 266.5q0 275 -177 452t-470 177q-338 0 -597 -259q-132 -132 -201 -312t-69 -373q0 -432 219 -586t343.5 -181.5t220.5 -27.5q190 0 377.5 82.5t285 219.5t146.5 253h59q-79 -258 -321 -435
t-549 -177q-190 0 -352 65.5t-279 183.5t-182.5 280.5t-65.5 360.5t73 375t201 307t300 204.5t359 74.5q352 0 544 -192t192 -492q0 -252 -151.5 -479t-419.5 -227q-80 0 -125 39t-45 100t10 109l10 45l-4 4q-104 -147 -191 -222t-171 -75t-134.5 65.5t-50.5 156.5t25 178
t89 209t191.5 228.5t239.5 106.5q57 0 99.5 -37t52.5 -104h4l31 110l190 17l-188 -650q-23 -80 -23 -121zM1147 785q0 60 -28.5 99.5t-72.5 39.5t-87.5 -34t-102 -114t-115.5 -233t-57 -240q0 -121 90 -121q68 0 134 66t108.5 133.5t71 137t44 138t15.5 128.5z" />
    <glyph glyph-name="A" unicode="A" horiz-adv-x="1492" 
d="M483 0h-467v59q64 4 114.5 66t113.5 215l395 985l-31 72h191l475 -1127q49 -117 92 -156.5t111 -54.5v-59h-545v59q88 4 129 30t41 79t-20.5 104.5t-39.5 96.5l-79 184h-549l-58 -152q-51 -130 -51 -194t46 -104t132 -44v-59zM674 1243l-228 -602h480z" />
    <glyph glyph-name="B" unicode="B" horiz-adv-x="1386" 
d="M1282 371q0 -239 -187.5 -305t-330.5 -66h-709v59q133 -4 172 38.5t39 144.5v925q0 91 -41.5 132.5t-169.5 37.5v60h707q227 0 345 -97t118 -235q0 -192 -141.5 -253.5t-260.5 -74.5v-4q459 -50 459 -362zM457 205q0 -80 46 -113t156 -33h107q137 0 216 81t79 237
t-117 240.5t-326 84.5h-161v-497zM653 762q188 0 272.5 75.5t84.5 200.5t-84.5 212t-235.5 87h-233v-575h196z" />
    <glyph glyph-name="C" unicode="C" horiz-adv-x="1579" 
d="M1380 1018q-176 334 -464 334q-248 0 -390 -142q-182 -182 -182 -502t207 -526q137 -137 364 -137q188 0 306 87t174 269h63l-6 -299q-151 -86 -319 -106.5t-242 -20.5q-337 0 -552.5 198.5t-215.5 512.5q0 178 70.5 315.5t184.5 230.5t255 141t272 48q279 0 490 -94
l53 -309h-68z" />
    <glyph glyph-name="D" unicode="D" horiz-adv-x="1728" 
d="M834 1397q361 0 567.5 -198t206.5 -497t-215 -509q-99 -99 -242 -146t-391 -47h-705v59q141 -4 185.5 37t44.5 144v915q0 103 -45 144.5t-185 37.5v60h779zM475 279q0 -117 60.5 -168.5t212.5 -51.5t274.5 33t210.5 121q160 160 160 458q-1 298 -185 482t-508 184h-225
v-1058z" />
    <glyph glyph-name="E" unicode="E" horiz-adv-x="1343" 
d="M1073 477h-59q-17 117 -83 168t-212 51h-262v-426q0 -72 7 -113.5t34.5 -63t84 -28t158.5 -6.5q201 0 314 67t188 204h66l-84 -330h-1176v59q126 -4 171.5 36t45.5 147v921q0 100 -45 138t-172 36v60h1145l12 -301h-59q-35 117 -114 179t-234 62h-342v-581h276
q125 0 201 50t80 171h59v-500z" />
    <glyph glyph-name="F" unicode="F" horiz-adv-x="1280" 
d="M1071 467h-59q-18 137 -82 194.5t-203 57.5h-270v-483q0 -106 48.5 -145t192.5 -32v-59h-661v59q136 -4 182.5 35.5t46.5 143.5v923q0 99 -48 141.5t-189 34.5v60h1216v-318h-59q-50 138 -125 198t-240 60h-364v-559h291q143 0 198 47t66 148h59v-506z" />
    <glyph glyph-name="G" unicode="G" horiz-adv-x="1728" 
d="M117 667q0 339 235 546.5t609 207.5q240 0 499 -98l25 -305h-60q-63 162 -191 248t-304 86q-252 0 -422 -174t-170 -466t168 -479.5t434 -187.5q102 0 202.5 26.5t166.5 71.5v320q0 108 -47 146t-203 34v59h645v-59q-111 4 -158 -34t-47 -140v-387q-297 -107 -545 -107
q-347 0 -520.5 125t-245 258.5t-71.5 308.5z" />
    <glyph glyph-name="H" unicode="H" horiz-adv-x="1685" 
d="M451 674v-418q0 -117 42 -159t171 -38v-59h-613v59q128 0 168.5 38.5t40.5 146.5v917q0 100 -42 140t-167 36v60h613v-60q-114 4 -150.5 -21.5t-49.5 -60t-13 -90.5v-413h784v413q0 94 -44 134t-169 38v60h612v-60q-127 0 -168 -36t-41 -140v-921q0 -106 45.5 -147.5
t163.5 -33.5v-59h-612v59q181 -5 197 62t16 112v441h-784z" />
    <glyph glyph-name="I" unicode="I" horiz-adv-x="724" 
d="M680 1397v-60q-121 4 -171 -31.5t-50 -134.5v-935q0 -101 47.5 -143t173.5 -34v-59h-635v59q127 -4 175 32.5t48 137.5v942q0 96 -44.5 133t-178.5 33v60h635z" />
    <glyph glyph-name="J" unicode="J" horiz-adv-x="641" 
d="M639 1337q-125 0 -169 -39.5t-44 -136.5v-991q0 -298 -112 -410t-244 -112q-92 0 -152.5 40t-60.5 90t25.5 74.5t68.5 24.5t65.5 -23.5t38 -51t32.5 -51t60 -23.5t66 47t23 180v1221q0 85 -47.5 127t-182.5 34v60h633v-60z" />
    <glyph glyph-name="K" unicode="K" horiz-adv-x="1642" 
d="M668 0h-623v59q185 -5 201 61t16 113v932q0 100 -46 138t-171 34v60h623v-60q-125 0 -159 -24.5t-45 -60t-11 -93.5v-907q0 -110 42 -155.5t173 -37.5v-59zM1481 1397v-60q-110 0 -233 -94t-301.5 -242.5t-276.5 -218.5q114 -86 248.5 -204.5t211 -186t186.5 -163
t180 -130.5t140 -39v-59h-329q-104 78 -352 301.5t-484 411.5q319 225 397 291.5t113 101.5q68 68 68 125q0 94 -144 106v60h576z" />
    <glyph glyph-name="L" unicode="L" horiz-adv-x="1409" 
d="M23 0v59q152 -4 197.5 34.5t45.5 148.5v925q0 98 -49.5 136t-185.5 34v60h659v-60q-137 4 -185 -33t-48 -149v-922q0 -90 42 -132t152 -42h293q191 0 275 114t118 169h62l-96 -342h-1280z" />
    <glyph glyph-name="M" unicode="M" horiz-adv-x="2048" 
d="M369 1171q0 85 -44 126.5t-122 39.5v60h358q6 -117 180 -520l95 -209q54 -114 95.5 -197t94.5 -213q37 100 119 254l149 295q118 243 151.5 358.5t33.5 231.5h387v-60q-96 4 -133 -32.5t-37 -122.5q0 -30 10 -127l106 -793q16 -110 60.5 -154.5t140.5 -48.5v-59h-594v59
q92 2 143.5 46.5t51.5 112.5t-19 226l-79 699h-5q-48 -138 -94.5 -233t-68.5 -140l-70 -135q-35 -68 -56.5 -111t-37 -73.5t-26.5 -55t-58 -127.5q-82 -182 -94 -268h-80q-31 132 -129 344l-199 420q-113 241 -154 379h-4l-114 -764q-13 -76 -13 -147q0 -70 42 -113t149 -60
v-59h-484v59q107 12 154.5 103.5t83.5 294.5l80 454q31 175 31 260z" />
    <glyph glyph-name="N" unicode="N" horiz-adv-x="1728" 
d="M1391 1090q0 129 -62.5 187t-185.5 60v60h547v-60q-130 -8 -176 -83t-46 -236v-789q0 -27 5.5 -61.5t10.5 -70.5t10 -66.5t5 -48.5h-108q-26 47 -83 112.5t-77 85.5l-858 893v-786q0 -113 65.5 -167t186.5 -61v-59h-574v59q113 -8 178.5 55.5t65.5 172.5v860l-80 82
q-82 88 -125 97t-72 11v60h304l1069 -1100v793z" />
    <glyph glyph-name="O" unicode="O" horiz-adv-x="1665" 
d="M121 689q0 321 205.5 526.5t511.5 205.5q174 0 306 -63.5t221 -165.5t134 -232.5t45 -254.5t-40 -250.5t-126 -233t-222 -176.5t-303 -70t-296 49.5t-225 141.5t-153.5 225t-57.5 298zM336 790q0 -148 35 -281.5t100.5 -236t163 -165t205.5 -62.5q215 0 352 147.5
t137 417.5q0 321 -145.5 531.5t-380.5 210.5q-177 0 -277 -98.5t-145 -207t-45 -256.5z" />
    <glyph glyph-name="P" unicode="P" horiz-adv-x="1280" 
d="M698 723q114 0 203.5 69.5t89.5 214.5t-94.5 237.5t-253.5 92.5h-188v-1101q0 -108 47.5 -144.5t179.5 -32.5v-59h-629v59q171 -6 191 57.5t20 116.5v932q0 96 -43.5 136t-175.5 36v60h535q189 0 319 -18.5t221.5 -115t91.5 -229.5q0 -169 -133 -281t-319 -112
q-185 0 -185 49q0 37 46 37z" />
    <glyph glyph-name="Q" unicode="Q" horiz-adv-x="1665" 
d="M121 702q0 146 54 280t149.5 231.5t227.5 152.5t298 55t298 -65.5t220 -170t132 -233.5t44 -258q0 -259 -158.5 -461t-396.5 -241v-4q68 -31 232.5 -123t404.5 -141v-78q-241 -55 -606 129q-132 70 -223 127t-121 71t-71.5 30.5t-115 51.5t-175.5 137
q-101 101 -147 232.5t-46 277.5zM482.5 256.5q146.5 -211.5 359.5 -211.5t350 147.5t137 421.5q0 275 -131.5 506.5t-407.5 231.5q-68 0 -150.5 -32t-193 -144t-110.5 -410t146.5 -509.5z" />
    <glyph glyph-name="R" unicode="R" horiz-adv-x="1492" 
d="M1174 47q-70 47 -158 156l-338 405q-30 34 -51 42.5t-68 8.5h-106v-417q0 -103 42 -145t167 -38v-59h-609v59q124 -4 166.5 36.5t42.5 146.5v921q0 96 -43 137t-166 37v60h686q215 0 351.5 -101t136.5 -256q0 -194 -138.5 -261.5t-250.5 -84.5q43 -49 87 -96t70 -76
l252 -293q84 -98 137.5 -130.5t100.5 -35.5v-43q-88 -20 -165 -20q-76 0 -146 47zM616 735q211 0 300.5 76t89.5 209q0 226 -140.5 271.5t-244.5 45.5h-168v-602h163z" />
    <glyph glyph-name="S" unicode="S" horiz-adv-x="1216" 
d="M1040 1028h-69q-23 154 -118 239t-237 85t-219.5 -54.5t-77.5 -139.5q-1 -85 53 -137t132 -96t163 -89t254 -146t169 -315q0 -154 -120 -277t-367 -123t-472 101l-6 356h70q18 -186 119.5 -281.5t261.5 -95.5t251 66t91 166t-72 172q-49 49 -127 95t-163 93t-167 97.5
t-129 97.5t-74.5 100t-27.5 131q0 156 122 252t337 96t423 -114v-279z" />
    <glyph glyph-name="T" unicode="T" horiz-adv-x="1599" 
d="M1190 1337h-295v-1091q0 -111 44.5 -151t172.5 -36v-59h-618v59q119 -4 165 34.5t46 152.5v1091h-267q-128 0 -202.5 -62t-135.5 -208h-59l25 330h1466l27 -330h-58q-64 152 -134.5 211t-176.5 59z" />
    <glyph glyph-name="U" unicode="U" horiz-adv-x="1642" 
d="M1405 565q0 -590 -586 -590q-290 0 -438 131.5t-148 327.5v711q0 110 -38 153t-172 39v60h632v-60q-199 5 -215 -57.5t-16 -103.5v-713q0 -182 111.5 -291t326.5 -109t343 128t128 401v471q0 144 -49.5 209t-185.5 65v60h518v-60q-116 -13 -163.5 -61t-47.5 -193v-518z
" />
    <glyph glyph-name="V" unicode="V" horiz-adv-x="1492" 
d="M1475 1397v-60q-75 -12 -121 -57t-67 -88t-41.5 -101.5t-46 -134t-66.5 -174.5l-146 -346q-16 -39 -80.5 -175.5t-89.5 -285.5h-98q-24 142 -139 392l-338 727q-77 162 -105 192.5t-55 39.5t-64 11v60h551v-60q-160 -10 -159 -110q0 -62 34 -137l240 -508
q49 -106 86 -191.5t59 -134.5q35 84 78 177t74 169l109 270q90 221 90 322q0 61 -40 100t-108 43v60h443z" />
    <glyph glyph-name="W" unicode="W" horiz-adv-x="2091" 
d="M602 1397h473v-60q-47 -4 -74.5 -32.5t-27.5 -81.5t53 -162l107 -211l118 225q2 6 9.5 22.5t19.5 51.5t12 74q0 38 -31.5 74t-78.5 40v60h377v-60q-64 -8 -121 -78t-133 -227l-134 -260q35 -74 75 -159t100 -211t71 -162q35 78 65.5 140t61.5 132l137 317
q77 170 96 257.5t19 109.5q0 131 -131 141v60h401v-60q-6 0 -17 -4t-34.5 -12t-54.5 -39q-30 -30 -105 -207l-202 -487q-16 -41 -54 -121t-109 -236t-85 -256h-86q-24 100 -107 281l-147 309l-197 -387q-69 -123 -86 -203h-88q-10 66 -108 289l-310 688q-49 111 -100.5 248
t-159.5 137v60h488v-60q-55 -6 -88 -37.5t-33 -81.5t34 -133.5t160 -351.5t230 -536q29 79 219 440l-211 444q-81 170 -109 203t-50.5 42t-53.5 11v60z" />
    <glyph glyph-name="X" unicode="X" horiz-adv-x="1579" 
d="M522 1262q0 -48 55.5 -119.5t102.5 -128.5l158 -193l178 211q117 138 117 201q0 98 -160 104v60h518v-60q-83 -13 -172.5 -85.5t-257.5 -278.5l-174 -209l434 -518q102 -119 142 -145.5t70 -33t71 -8.5v-59h-656v59q168 6 168 88q0 37 -32.5 90.5t-110.5 147.5l-205 242
l-178 -207q-125 -147 -136.5 -186t-11.5 -58q0 -102 148 -117v-59h-535v59q85 4 171.5 73.5t232.5 242.5l262 311l-262 322q-14 18 -43 50t-115 129t-146.5 124.5t-117.5 25.5v60h643v-60q-158 7 -158 -75z" />
    <glyph glyph-name="Y" unicode="Y" horiz-adv-x="1492" 
d="M627 1337q-168 7 -168 -78q0 -39 19.5 -76.5t66.5 -109.5l270 -403l217 305q107 155 107 231q0 113 -158 131v60h498v-60q-68 0 -135 -60t-170 -214l-332 -481v-340q0 -101 43 -144t164 -39v-59h-603v59q122 0 163.5 39.5t41.5 143.5v352l-381 565q-73 109 -121.5 141.5
t-132.5 36.5v60h611v-60z" />
    <glyph glyph-name="Z" unicode="Z" horiz-adv-x="1409" 
d="M80 0v59l975 1270h-449q-167 0 -238.5 -46t-125.5 -208h-60v322h1121v-47l-988 -1282h586q57 0 101.5 7t107 50t178.5 237h62l-93 -362h-1177z" />
    <glyph glyph-name="bracketleft" unicode="[" horiz-adv-x="704" 
d="M410 -166q0 -80 49 -107.5t182 -27.5h35v-70h-412v1768h412v-70h-35q-133 0 -182 -28.5t-49 -106.5v-1358z" />
    <glyph glyph-name="backslash" unicode="\" horiz-adv-x="546" 
d="M547 -276h-88l-459 1697h88z" />
    <glyph glyph-name="bracketright" unicode="]" horiz-adv-x="704" 
d="M295 1192q0 80 -48 107.5t-184 27.5h-34v70h411v-1768h-411v70h34q135 0 183.5 28.5t48.5 106.5v1358z" />
    <glyph glyph-name="asciicircum" unicode="^" horiz-adv-x="995" 
d="M944 680h-104l-344 575l-342 -575h-105l428 717h39z" />
    <glyph glyph-name="underscore" unicode="_" horiz-adv-x="1024" 
d="M-18 -256v102h1058v-102h-1058z" />
    <glyph glyph-name="grave" unicode="`" 
d="M195 1342q0 20 10 26t41 6h49q51 0 71.5 -13t36.5 -56l89 -234h-72l-203 229q-22 22 -22 42z" />
    <glyph glyph-name="a" unicode="a" horiz-adv-x="960" 
d="M144.5 37.5q-66.5 60.5 -66.5 158.5t73.5 159t274.5 128l188 64v160q0 78 -53 125t-132 47t-130 -34t-51 -69t18.5 -64.5t26.5 -43t8 -29t-62.5 -41t-72.5 -25.5q-16 0 -35.5 42t-19.5 90q0 102 107 169.5t263 67.5t224.5 -61.5t68.5 -184.5v-475q0 -102 55 -102
q35 0 74 22l19 -51q-94 -113 -174 -113q-127 0 -134 164q-148 -164 -299 -164q-104 0 -170.5 60.5zM244 242q0 -61 43 -100.5t110 -39.5q115 0 217 113v279l-243 -107q-127 -55 -127 -145z" />
    <glyph glyph-name="b" unicode="b" horiz-adv-x="1130" 
d="M660 942q95 0 170 -45t148 -147.5t73 -284.5t-136 -335t-362 -153q-125 0 -214 31t-179 90v1135l-146 67v31l305 90v-659q94 98 170 139t171 41zM319 291q0 -117 87 -185.5t188 -68.5q139 0 218 99.5t79 275.5t-87.5 287.5t-222.5 111.5q-134 0 -262 -119v-401z" />
    <glyph glyph-name="c" unicode="c" horiz-adv-x="960" 
d="M538 -23q-196 0 -325 134t-129 342t140.5 348.5t353.5 140.5q137 0 224 -52t87 -136q0 -41 -21.5 -64.5t-55.5 -23.5t-51.5 16t-29.5 39.5t-39.5 92.5t-158.5 69t-210 -95.5t-79 -265.5t99 -284.5t246 -114.5q148 0 273 127l41 -29q-66 -117 -164.5 -180.5t-200.5 -63.5z
" />
    <glyph glyph-name="d" unicode="d" horiz-adv-x="1153" 
d="M584 942q127 0 227 -74v365l-158 67v31l318 90v-1218q0 -66 19.5 -94.5t63.5 -28.5t66 6v-53l-309 -53v170q-94 -94 -212.5 -155t-272 11t-198 192t-44.5 210t31.5 184t94 172t155 128t219.5 50zM811 582q0 119 -77.5 207t-204.5 88q-128 0 -206.5 -100.5t-78.5 -276.5
t91.5 -289t227 -113t248.5 125v359z" />
    <glyph glyph-name="e" unicode="e" horiz-adv-x="937" 
d="M510 -23q-186 0 -308 132.5t-122 344.5t119 350t289 138t276.5 -105.5t112.5 -254.5h-658q-8 -223 104 -341t270 -118q75 0 130 24.5t119 88.5l35 -35q-150 -223 -367 -224zM468 883q-91 0 -156.5 -66.5t-84.5 -177.5h457q-12 117 -68.5 180.5t-147.5 63.5z" />
    <glyph glyph-name="f" unicode="f" 
d="M616 848h-237v-617q0 -119 38.5 -152.5t170.5 -25.5v-53h-541v53q106 -4 139 32.5t33 141.5v621h-168v74q82 -2 110.5 4t46.5 23t21.5 59.5t11 92.5t25 105.5t67.5 105.5q109 109 296 109q102 0 157.5 -29.5t55.5 -73.5t-23.5 -67.5t-58.5 -23.5t-61.5 19.5t-51 43
t-50 43t-61.5 19.5q-75 0 -116 -65.5t-41 -158.5v-206h237v-74z" />
    <glyph glyph-name="g" unicode="g" horiz-adv-x="1044" 
d="M944 752q-57 0 -156 28l-4 -4q52 -64 52 -149q0 -148 -106 -241t-259 -93q-82 0 -133 20q-88 -71 -88 -107t49 -50.5t178 -14.5h162q328 -4 328 -211q0 -142 -153 -235.5t-394 -93.5q-240 0 -304.5 72.5t-64.5 149t172 197.5q-117 34 -117 107q0 40 31 79.5t139 135.5
q-78 37 -124 108.5t-46 150.5q0 150 106.5 245.5t260.5 95.5q95 0 195 -35q131 -35 219 -35t129 5v-119q-16 -6 -72 -6zM274 635q0 -121 60 -199t152 -78t141 57.5t49 155.5q0 182 -72 244t-152 62t-129 -60.5t-49 -181.5zM178 -161q0 -71 82 -111.5t186 -40.5
q186 0 299 52.5t113 126.5q0 73 -63.5 96.5t-226.5 23.5t-271 16q-119 -92 -119 -163z" />
    <glyph glyph-name="h" unicode="h" horiz-adv-x="1130" 
d="M614 825q-148 0 -280 -120v-474q0 -103 30 -140.5t121 -37.5v-53h-462v53q78 0 114.5 29t36.5 119v1032l-143 67v31l303 90v-653q180 174 354 174q123 0 196.5 -74.5t73.5 -208.5v-444q0 -92 29 -127t115 -35v-53h-445v53q86 0 114 39t28 137v373q0 113 -44 168t-141 55z
" />
    <glyph glyph-name="i" unicode="i" horiz-adv-x="532" 
d="M356 227q0 -96 28 -135t116 -39v-53h-463v53q98 0 129 35.5t31 147.5v520l-150 67v31l309 88v-715zM170 1317q0 43 30.5 73.5t73.5 30.5t74 -30.5t31 -73.5t-31 -74t-74 -31t-73.5 31t-30.5 74z" />
    <glyph glyph-name="j" unicode="j" horiz-adv-x="512" 
d="M201 106v648l-160 67v33l319 88v-846q0 -97 -39.5 -162t-96 -135.5t-150.5 -183.5l-49 45q176 272 176 446zM160 1317q0 43 30.5 73.5t73.5 30.5t74 -30.5t31 -73.5t-31 -74t-74 -31t-73.5 31t-30.5 74z" />
    <glyph glyph-name="k" unicode="k" horiz-adv-x="1003" 
d="M319 225q0 -90 27 -131t125 -41v-53h-448v53q74 4 105.5 36t31.5 112v1032l-135 67v31l294 90v-1196zM963 922v-54q-70 -4 -128 -36t-165 -127l-193 -170l402 -377q84 -84 141 -105v-53h-182q-85 60 -152 127l-358 352l184 162q66 57 89.5 87t23.5 64q0 68 -140 76v54
h478z" />
    <glyph glyph-name="l" unicode="l" horiz-adv-x="512" 
d="M334 233q0 -107 22.5 -135t50 -36.5t72.5 -8.5v-53h-454v53q90 4 119.5 36t29.5 149v995l-149 63v35l309 90v-1188z" />
    <glyph glyph-name="m" unicode="m" horiz-adv-x="1748" 
d="M352 780q150 162 340 162q92 0 164 -48t92 -126q166 174 350 174q99 0 187 -61t88 -187v-469q0 -96 20.5 -124.5t50 -38t76.5 -9.5v-53h-448v53q72 -2 106.5 33t34.5 129v379q0 162 -70.5 193.5t-130.5 31.5q-133 0 -249 -108v-494q0 -88 28.5 -128t118.5 -36v-53h-459
v53q90 -2 121 37t31 137v412q0 82 -53.5 130t-145.5 48q-136 0 -252 -106v-488q0 -98 29 -134t117 -36v-53h-467v53q103 0 132.5 38.5t29.5 152.5v510l-142 69v31l301 88v-162z" />
    <glyph glyph-name="n" unicode="n" horiz-adv-x="1153" 
d="M709 942q117 0 194.5 -74.5t77.5 -222.5v-424q0 -99 31 -133.5t118 -34.5v-53h-468v53q98 0 128.5 37.5t30.5 138.5v404q0 82 -49 135t-135 53q-156 0 -283 -123v-465q0 -108 30.5 -146t133.5 -34v-53h-477v53q87 0 120.5 34t33.5 144v523l-146 67v29l305 92v-176
q176 176 355 176z" />
    <glyph glyph-name="o" unicode="o" horiz-adv-x="1087" 
d="M84 458.5q0 208.5 133.5 346t327.5 137.5t326.5 -136.5t132.5 -341.5t-132 -346t-328 -141q-195 0 -327.5 136.5t-132.5 345zM284.5 311q40.5 -126 114.5 -200t186 -74t185.5 86.5t73.5 220.5q0 196 -81 367.5t-241 171.5q-183 0 -230.5 -120t-47.5 -223t40.5 -229z" />
    <glyph glyph-name="p" unicode="p" horiz-adv-x="1173" 
d="M342 -172q0 -47 3 -78t28 -56.5t151 -25.5v-53h-489v53q110 0 128.5 38t18.5 47v1001l-147 69v29l307 90v-172q160 172 333 172t284.5 -124t111.5 -324t-144.5 -358.5t-359.5 -158.5q-117 0 -225 76v-225zM342 358q0 -135 79 -225t207 -90t205.5 101.5t77.5 279.5
t-87.5 289.5t-224.5 111.5q-136 0 -257 -125v-342z" />
    <glyph glyph-name="q" unicode="q" horiz-adv-x="1130" 
d="M899 897q0 31 4 38t25 7h18q16 0 20.5 -6t4.5 -39v-1087q0 -88 39 -116t123 -26v-53h-484v53q110 0 136 39.5t26 151.5v305q-160 -187 -330 -187q-171 0 -283 131t-112 340t140 351.5t339 142.5t334 -98v53zM811 629q0 110 -76 182t-205 72q-128 0 -206 -97.5t-78 -274.5
t85.5 -287.5t190.5 -110.5t161 25.5t128 90.5v400z" />
    <glyph glyph-name="r" unicode="r" horiz-adv-x="768" 
d="M354 707h4q59 123 118 174t118 51t110.5 -37t51.5 -72q0 -36 -21.5 -80.5t-48.5 -44.5q-18 0 -34.5 15.5t-48.5 49.5t-79 34q-46 0 -90.5 -62.5t-79.5 -118.5v-397q0 -103 28 -129.5t69 -33.5t112 -3v-53h-530v53q88 0 125 28t37 120v553l-162 69v29l321 90v-235z" />
    <glyph glyph-name="s" unicode="s" horiz-adv-x="811" 
d="M600 637q-45 246 -202 246q-79 0 -124 -39.5t-45 -99.5t34 -94t82 -57.5t212 -98.5t164 -246q0 -117 -92 -194t-237 -77t-275 76v254h53q12 -123 75 -196.5t151 -73.5t140 47t52 110t-35 98q-49 51 -193 117t-207 129t-63 164t85.5 170.5t221.5 69.5q137 0 256 -88v-217
h-53z" />
    <glyph glyph-name="t" unicode="t" horiz-adv-x="641" 
d="M393 -23q-117 0 -162 52.5t-45 156.5v662h-163v47q197 55 272 227h51v-200h283v-74h-283v-633q0 -78 28.5 -108.5t108.5 -30.5t164 16v-63q-137 -52 -254 -52z" />
    <glyph glyph-name="u" unicode="u" horiz-adv-x="1153" 
d="M633 922q112 0 328 16v-745q0 -80 27.5 -93.5t56 -13.5t67.5 4v-53l-311 -57v178q-78 -86 -170.5 -133.5t-162.5 -47.5q-136 0 -215 77.5t-79 213.5v457q0 74 -31.5 103.5t-128.5 39.5v54q278 7 320 16v-631q0 -203 196 -203q139 0 271 119v484q0 90 -33 125.5t-135 35.5
v54z" />
    <glyph glyph-name="v" unicode="v" horiz-adv-x="1024" 
d="M25 922h424v-54q-129 -6 -130 -77q0 -33 25 -91l225 -516l140 346q71 174 71 226q-1 104 -125 112v54h353v-54q-68 -8 -108.5 -52.5t-80.5 -149.5l-274 -691h-51l-338 779q-29 63 -54.5 86.5t-76.5 27.5v54z" />
    <glyph glyph-name="w" unicode="w" horiz-adv-x="1492" 
d="M12 922h381v-54q-102 -6 -102 -82q0 -27 33 -106l198 -498l199 498l-21 59q-25 72 -55.5 97.5t-93.5 31.5v54h434v-54q-127 -8 -127 -77q0 -35 33 -121l186 -473l174 460q25 73 25 107q0 96 -115 104v54h312v-54q-49 -4 -82 -42t-66 -128l-272 -723h-54l-249 633
l-252 -633h-54l-315 779q-23 57 -47.5 80.5t-69.5 33.5v54z" />
    <glyph glyph-name="x" unicode="x" horiz-adv-x="1067" 
d="M305 137q0 -75 117 -84v-53h-375v53q44 4 97 44.5t157 156.5l162 184l-273 330q-68 85 -97.5 91.5t-53.5 8.5v54h410v-54q-88 -2 -89 -47q0 -28 70 -110l131 -158l109 123q67 76 67 123q0 61 -98 69v54h352v-54q-90 -4 -180 -108l-217 -250l272 -332q53 -66 90 -91.5
t78 -33.5v-53h-440v53q100 12 100 64q0 23 -14 46t-57 77l-127 155l-99 -110q-55 -63 -73.5 -93t-18.5 -55z" />
    <glyph glyph-name="y" unicode="y" horiz-adv-x="1024" 
d="M459 868q-123 -8 -123 -68q0 -53 57 -175l197 -437l129 338q69 179 69 230t-28.5 76.5t-95.5 35.5v54h337v-54q-62 -11 -96.5 -53t-87.5 -176l-287 -764q-41 -111 -110.5 -185.5t-154.5 -74.5t-130 31.5t-45 73.5t24.5 67t52.5 25t42 -11.5t43 -35t79 -23.5t94 56.5
t91 191.5l-336 737q-34 78 -65.5 107.5t-89.5 33.5v54h434v-54z" />
    <glyph glyph-name="z" unicode="z" horiz-adv-x="937" 
d="M43 0v47l606 821h-184q-143 0 -190.5 -24.5t-76 -57t-57.5 -84.5h-53v248h21q23 0 30.5 -4t26.5 -14t90 -10h584v-50l-598 -819h215q145 0 221 56t129 186h49l-49 -295h-764z" />
    <glyph glyph-name="braceleft" unicode="{" horiz-adv-x="970" 
d="M473 1072q0 129 98 236.5t254 135.5v-37q-109 -25 -167 -84t-58 -138t23 -169q20 -108 20 -160q0 -111 -73.5 -201t-209.5 -145q135 -55 209 -145.5t74 -200.5q1 -52 -21 -159q-22 -106 -22 -178q0 -71 58.5 -130t166.5 -84v-37q-155 28 -253.5 134.5t-98.5 246.5
q1 53 23 153q22 99 22 164q0 64 -62.5 130.5t-174.5 82.5v45q113 16 175 83t62 133t-22 165q-22 98 -23 159z" />
    <glyph glyph-name="bar" unicode="|" horiz-adv-x="1044" 
d="M567 1536v-2048h-88v2048h88z" />
    <glyph glyph-name="braceright" unicode="}" horiz-adv-x="970" 
d="M453 262q1 -34 23 -142t22 -171q0 -131 -99 -238t-254 -135v37q109 25 167.5 84t58.5 129q1 70 -21 175q-22 104 -22 163q0 111 73.5 201t208.5 145q-135 55 -208.5 145t-73.5 201q0 65 22 164t21 171q0 73 -58.5 132t-167.5 84v37q156 -28 254.5 -136t98.5 -245
q0 -64 -22 -162t-23 -143q0 -76 62.5 -142.5t174.5 -83.5v-45q-113 -16 -175 -82.5t-62 -142.5z" />
    <glyph glyph-name="asciitilde" unicode="~" horiz-adv-x="1366" 
d="M371 569q-139 0 -172 -180h-58q4 156 76 230.5t189 74.5q61 0 135.5 -27.5t159.5 -62.5t163 -64.5t142 -29.5t107.5 49t51.5 135h58q-6 -152 -76 -228.5t-183 -76.5t-313 90q-80 35 -152.5 62.5t-127.5 27.5z" />
    <glyph glyph-name="exclamdown" unicode="&#xa1;" horiz-adv-x="555" 
d="M260 -508q-86 0 -86 58q0 44 6 96l80 889h55l66 -893q2 -29 2 -32v-42q0 -41 -19.5 -58.5t-68.5 -17.5h-35zM389 829.5q0 -47.5 -32.5 -80t-80 -32.5t-80 32.5t-32.5 80t32.5 80t80 32.5t80 -32.5t32.5 -80z" />
    <glyph glyph-name="cent" unicode="&#xa2;" horiz-adv-x="960" 
d="M530 -23q-110 0 -192 46l-139 -381h-58l148 407q-96 63 -150.5 165t-54.5 220q0 224 141.5 366t347.5 142h41l136 371h59l-139 -379q106 -18 162.5 -65.5t56.5 -101.5q0 -101 -78 -101q-39 0 -56.5 20.5t-29.5 50t-28.5 62t-53.5 59.5l-246 -672q88 -63 197 -63
q143 0 268 127l41 -29q-66 -117 -164.5 -180.5t-208.5 -63.5zM537 883q-135 0 -214 -95.5t-79 -269.5t108 -293l240 652q-29 6 -55 6z" />
    <glyph glyph-name="sterling" unicode="&#xa3;" horiz-adv-x="1449" 
d="M220 -387q-83 0 -83 88q0 45 49.5 100.5t135.5 96.5l100 348h-266l16 59h266l107 400q89 330 225 523t377 193q111 0 182.5 -40t71.5 -99q0 -33 -20.5 -56.5t-53.5 -23.5t-60.5 22.5t-83 70.5t-125.5 48q-105 0 -171 -108.5t-168 -491.5l-121 -438h287l-21 -59h-282
q-66 -205 -125 -316q82 29 158 29q77 0 141.5 -34t120 -76t104.5 -75.5t95 -33.5t76 23.5t30 51.5t-10.5 48t-33 58.5t-22.5 74.5q0 37 21.5 61.5t62.5 24.5t69.5 -38t28.5 -87q0 -115 -83 -228.5t-236 -113.5q-84 0 -141.5 38t-109.5 83t-108 83t-114 38t-92 -9
q-47 -111 -100.5 -173t-93.5 -62z" />
    <glyph glyph-name="currency" unicode="&#xa4;" horiz-adv-x="1366" 
d="M686 1106q162 0 275 -96l126 127l74 -76l-127 -127q96 -113 96 -276t-96 -275l127 -127l-74 -74l-126 127q-122 -96 -281 -96q-160 0 -272 98l-129 -129l-74 74l129 129q-96 117 -96 274q0 86 28.5 159t67.5 114l-129 129l74 76l129 -129q116 98 278 98zM441 900
q-99 -99 -99 -240t99 -242t240 -101q142 0 242.5 100.5t100.5 242.5t-100.5 240.5t-242.5 98.5q-141 0 -240 -99z" />
    <glyph glyph-name="yen" unicode="&#xa5;" horiz-adv-x="1492" 
d="M842 416h485v-60h-485v-125q0 -99 42 -135.5t165 -36.5v-59h-603v59q117 -4 161 36t44 138v123h-495v60h495v248h-495v59h462l-290 436q-78 111 -124.5 142.5t-129.5 35.5v60h610v-58q-92 4 -130 -14.5t-38 -70.5t72 -162l223 -340h8l211 313q51 74 51 141
q0 113 -157 131v60h497v-60q-59 -2 -112.5 -42t-122.5 -138l-303 -434h444v-59h-485v-248z" />
    <glyph glyph-name="brokenbar" unicode="&#xa6;" horiz-adv-x="1044" 
d="M567 358v-716h-88v716h88zM567 1382v-716h-88v716h88z" />
    <glyph glyph-name="section" unicode="&#xa7;" horiz-adv-x="831" 
d="M72 957q0 87 31.5 175.5t119 188.5t269.5 100q100 0 165.5 -37.5t65.5 -97.5q0 -33 -20.5 -52.5t-56.5 -19.5t-62.5 20.5t-75 64.5t-108.5 44t-95 -32.5t-35 -66.5q0 -55 21.5 -107.5t79.5 -143.5l172 -284q127 -220 170 -360.5t43 -261.5q0 -228 -113.5 -353
t-304.5 -125q-100 0 -169 39t-69 96q0 35 26 57.5t62 22.5t65.5 -21.5t81 -69.5t106.5 -48t85.5 33.5t30.5 83.5q0 96 -119 274l-82 121q-247 367 -265.5 520t-18.5 240zM688 55q0 241 -184 559l-139 240q-98 171 -125 237t-27 136h-4q-68 -105 -68 -252q0 -294 219 -627
l78 -119q100 -158 136 -245t44 -199h5q65 113 65 270z" />
    <glyph glyph-name="dieresis" unicode="&#xa8;" 
d="M23 1221q0 41 29.5 70.5t70.5 29.5t70.5 -29.5t29.5 -70.5t-29.5 -71t-70.5 -30t-70.5 30t-29.5 71zM457 1221q0 41 29.5 70.5t70.5 29.5t70.5 -29.5t29.5 -70.5t-29.5 -71t-70.5 -30t-70.5 30t-29.5 71z" />
    <glyph glyph-name="copyright" unicode="&#xa9;" horiz-adv-x="1579" 
d="M1058.5 1100q24.5 0 41.5 45h39l20 -281h-39q-72 236 -303 236q-147 0 -233 -105.5t-86 -283.5q0 -310 129 -362t200 -52q197 0 312 164l39 -21q-139 -203 -385 -202q-201 0 -332 129t-131 321t143.5 324.5t353.5 132.5q82 0 144.5 -22.5t87 -22.5zM1499 688.5
q0 -147.5 -55 -276.5t-151.5 -225.5t-225.5 -151.5t-276.5 -55t-276.5 55t-225 151.5t-151.5 225.5t-55.5 276.5t55.5 276.5t151.5 225t225 151.5t276.5 55.5t276.5 -55.5t225.5 -151.5t151.5 -225t55 -276.5zM1438 688q0 135 -51.5 253t-138.5 205t-204.5 138t-253 51
t-253 -51t-204.5 -138t-138.5 -205t-51.5 -253t51.5 -253t138.5 -205t204.5 -138t253 -51t253 51t204.5 138t138.5 205t51.5 253z" />
    <glyph glyph-name="ordfeminine" unicode="&#xaa;" horiz-adv-x="618" 
d="M397 1274q0 108 -125 108q-43 0 -77.5 -20t-34.5 -44t17.5 -44.5t17.5 -27.5q0 -10 -34.5 -28t-49.5 -18q-14 0 -27.5 24.5t-13.5 57.5q0 59 69.5 99t170.5 40t144.5 -35.5t43.5 -91.5v-264q0 -66 9 -84t31 -18t44 14l14 -31q-66 -68 -113 -67q-80 0 -86 98
q-94 -98 -194 -98q-68 0 -112 35.5t-44 93.5q0 109 170 151l180 60v90zM156 997q0 -33 28.5 -56t71.5 -23q78 0 141 67v166l-157 -61q-84 -27 -84 -93z" />
    <glyph glyph-name="guillemotleft" unicode="&#xab;" horiz-adv-x="724" 
d="M391 975h37l-178 -463l178 -459h-37l-299 459zM604 868h35l-109 -356l109 -367h-35l-207 367z" />
    <glyph glyph-name="logicalnot" unicode="&#xac;" horiz-adv-x="1366" 
d="M1223 831v-575h-109v467h-971v108h1080z" />
    <glyph glyph-name="registered" unicode="&#xae;" horiz-adv-x="1579" 
d="M489 993q0 53 -19 73.5t-73 20.5v37h385q135 0 217 -61.5t82 -163.5q0 -166 -223 -221l209 -299q35 -49 59.5 -66.5t61.5 -21.5v-33h-184l-295 406h-74v-285q0 -53 25.5 -70.5t91.5 -17.5v-33h-367v33q66 0 85 24.5t19 73.5v604zM717 1079q-35 0 -82 -14v-358h29
q123 0 189.5 48t66.5 133t-57.5 138t-145.5 53zM1499 688.5q0 -147.5 -55 -276.5t-151.5 -225.5t-225.5 -151.5t-276.5 -55t-276.5 55t-225 151.5t-151.5 225.5t-55.5 276.5t55.5 276.5t151.5 225t225 151.5t276.5 55.5t276.5 -55.5t225.5 -151.5t151.5 -225t55 -276.5z
M1438 688q0 135 -51.5 253t-138.5 205t-204.5 138t-253 51t-253 -51t-204.5 -138t-138.5 -205t-51.5 -253t51.5 -253t138.5 -205t204.5 -138t253 -51t253 51t204.5 138t138.5 205t51.5 253z" />
    <glyph glyph-name="macron" unicode="&#xaf;" 
d="M709 1282v-121h-736v121h736z" />
    <glyph glyph-name="macron" unicode="&#x2c9;" 
d="M709 1282v-121h-736v121h736z" />
    <glyph glyph-name="degree" unicode="&#xb0;" horiz-adv-x="759" 
d="M700 1075.5q0 -67.5 -25.5 -126t-68.5 -101.5t-101.5 -68.5t-126 -25.5t-125.5 25.5t-101 68.5t-69 101.5t-26 126t26 126t69 101.5t101 68.5t125.5 25.5t126 -25.5t101.5 -68.5t68.5 -101.5t25.5 -126zM536.5 1231q-63.5 65 -157.5 65t-157.5 -65t-63.5 -156
q0 -92 64.5 -156.5t156.5 -64.5t156.5 64.5t64.5 156.5q0 91 -63.5 156z" />
    <glyph glyph-name="plusminus" unicode="&#xb1;" horiz-adv-x="1366" 
d="M629 915v486h108v-486h486v-108h-486v-485h-108v485h-486v108h486zM1223 109v-109h-1080v109h1080z" />
    <glyph glyph-name="twosuperior" unicode="&#xb2;" 
d="M76 1272q120 125 258 125q115 0 182.5 -53.5t67.5 -124.5q0 -70 -51.5 -136.5t-194.5 -187.5l-143 -115v-4h258q47 0 65.5 15.5t40.5 76.5h66l-72 -182h-492v47l209 180q186 160 187 279q0 53 -46.5 88t-106.5 35t-98 -16.5t-91 -59.5z" />
    <glyph glyph-name="threesuperior" unicode="&#xb3;" 
d="M420 1229q0 41 -38 69.5t-92 28.5q-93 0 -163 -70l-37 35q53 57 107.5 81t139.5 24t147.5 -44t62.5 -110q0 -86 -117 -139v-4q72 -10 117 -58.5t45 -107.5q0 -116 -96.5 -188t-243.5 -72q-76 0 -131 18.5t-55 44.5q0 16 18 31.5t36 15.5q22 0 77.5 -29.5t116.5 -29.5
t107 49t46 125q0 127 -174 127q-44 0 -146 -10l9 47q123 6 193.5 50t70.5 116z" />
    <glyph glyph-name="acute" unicode="&#xb4;" 
d="M436 1374q51 0 51 -25t-22 -49l-203 -229h-72l89 234q18 46 39 57.5t69 11.5h49z" />
    <glyph glyph-name="mu" unicode="&#xb5;" horiz-adv-x="1036" 
d="M276 934v-619q0 -213 195 -213q120 0 188 52.5t86 81.5v698h160v-643q0 -117 19.5 -167t70.5 -50t76 29.5t43 107.5h51q-4 -119 -72.5 -177.5t-156.5 -58.5q-162 0 -188 185q-111 -106 -193 -145.5t-162 -39.5q-137 0 -217 105q-7 -181 15 -257.5t32 -106t10 -66.5
t-26.5 -65.5t-66.5 -28.5t-67.5 27.5t-27.5 65.5t36 139.5t36 399.5v746h159z" />
    <glyph glyph-name="mu" unicode="&#x3bc;" horiz-adv-x="1036" 
d="M276 934v-619q0 -213 195 -213q120 0 188 52.5t86 81.5v698h160v-643q0 -117 19.5 -167t70.5 -50t76 29.5t43 107.5h51q-4 -119 -72.5 -177.5t-156.5 -58.5q-162 0 -188 185q-111 -106 -193 -145.5t-162 -39.5q-137 0 -217 105q-7 -181 15 -257.5t32 -106t10 -66.5
t-26.5 -65.5t-66.5 -28.5t-67.5 27.5t-27.5 65.5t36 139.5t36 399.5v746h159z" />
    <glyph glyph-name="paragraph" unicode="&#xb6;" horiz-adv-x="897" 
d="M766 -399h-59v1745h-185v-1745h-59v1071q-223 -4 -345 84t-122 257t112.5 276.5t325.5 107.5h467v-37q-90 -4 -108.5 -27.5t-22.5 -57.5t-4 -89v-1585z" />
    <glyph glyph-name="periodcentered" unicode="&#xb7;" horiz-adv-x="555" 
d="M278.5 666q47.5 0 80 -33t32.5 -80t-32.5 -80t-80 -33t-80 33t-32.5 80t32.5 80t80 33z" />
    <glyph glyph-name="periodcentered" unicode="&#x2219;" horiz-adv-x="555" 
d="M278.5 666q47.5 0 80 -33t32.5 -80t-32.5 -80t-80 -33t-80 33t-32.5 80t32.5 80t80 33z" />
    <glyph glyph-name="cedilla" unicode="&#xb8;" 
d="M336 -219q0 67 -100 76l86 155h51l-39 -78q55 -10 87 -43.5t32 -80.5q0 -78 -65.5 -124t-207.5 -42v53q72 -2 114 19.5t42 64.5z" />
    <glyph glyph-name="onesuperior" unicode="&#xb9;" 
d="M522 686h-346v47q74 -4 89.5 7.5t18.5 23.5t3 33v389q0 41 -13.5 55t-56.5 14l-55 2v43q111 31 188 97h58v-586q0 -55 19 -68.5t95 -9.5v-47z" />
    <glyph glyph-name="ordmasculine" unicode="&#xba;" horiz-adv-x="704" 
d="M55 1132.5q0 124.5 86 206.5t214.5 82t213 -82.5t84.5 -203.5t-85 -206t-213 -85t-214 82t-86 206.5zM501 931q48 52 48 153t-53 201.5t-147 100.5q-93 0 -141 -53t-48 -150t57 -200.5t146.5 -103.5t137.5 52z" />
    <glyph glyph-name="guillemotright" unicode="&#xbb;" horiz-adv-x="724" 
d="M334 53h-37l178 459l-178 463h37l299 -463zM121 145h-35l109 367l-109 356h35l207 -356z" />
    <glyph glyph-name="onequarter" unicode="&#xbc;" horiz-adv-x="1622" 
d="M813 166v67l393 476h80v-463h121v-80h-121v-176h-119v176h-354zM1167 246v323l-272 -323h272zM287 1186q0 41 -13.5 55t-56.5 14l-55 2v43q111 31 188 97h58v-586q0 -55 19 -68.5t95 -9.5v-47h-346v47q74 -4 89.5 7.5t18.5 23.5t3 33v389zM1153 1421h86l-917 -1507h-89z
" />
    <glyph glyph-name="onehalf" unicode="&#xbd;" horiz-adv-x="1622" 
d="M1153 1421h86l-917 -1507h-89zM924 586q120 125 258 125q115 0 182.5 -53.5t67.5 -124.5q0 -70 -51.5 -136.5t-194.5 -187.5l-144 -115v-4h258q47 0 65.5 15.5t41.5 76.5h66l-72 -182h-492v47l209 180q186 160 187 279q0 53 -46.5 88t-106.5 35t-98 -16.5t-91 -59.5z
M287 1186q0 41 -13.5 55t-56.5 14l-55 2v43q111 31 188 97h58v-586q0 -55 19 -68.5t95 -9.5v-47h-346v47q74 -4 89.5 7.5t18.5 23.5t3 33v389z" />
    <glyph glyph-name="threequarters" unicode="&#xbe;" horiz-adv-x="1622" 
d="M813 166v67l393 476h80v-463h121v-80h-121v-176h-119v176h-354zM1167 246v323l-272 -323h272zM444 1229q0 41 -38 69.5t-92 28.5t-97 -23.5t-65 -46.5l-37 35q53 57 107 81t139 24t147.5 -44t62.5 -110q0 -86 -116 -139v-4q72 -10 116.5 -58.5t44.5 -107.5
q0 -116 -96.5 -188t-243.5 -72q-76 0 -131 18.5t-55 44.5q0 16 18.5 31.5t36.5 15.5q22 0 77.5 -29.5t116.5 -29.5t107 49t46 125q0 127 -175 127q-43 0 -145 -10l8 47q123 6 193.5 50t70.5 116zM1153 1421h86l-917 -1507h-89z" />
    <glyph glyph-name="questiondown" unicode="&#xbf;" horiz-adv-x="874" 
d="M610 274.5q0 -22.5 -28.5 -37t-72.5 -29.5t-168 -57t-124 -182q0 -122 82.5 -224.5t179.5 -102.5q71 0 135 23.5t76 23.5q51 -1 51 -63t-49.5 -98t-119.5 -36t-123.5 31t-127.5 106.5t-144.5 209t-70.5 227.5q0 93 82 176q35 35 75 54t79 34.5t74 31.5t59 40
q44 45 53 163h58q-10 -50 7 -159t17 -131.5zM662 829.5q0 -47.5 -33 -80t-80 -32.5t-80 32.5t-33 80t33 80t80 32.5t80 -32.5t33 -80z" />
    <glyph glyph-name="Agrave" unicode="&#xc0;" horiz-adv-x="1492" 
d="M483 0h-467v59q66 5 115 66q50 62 113 215l395 985l-31 72h191l475 -1127q48 -114 91 -155t112 -56v-59h-545v59q88 4 129 30t41 83t-20 105q-20 47 -40 92l-79 184h-549l-58 -152q-51 -130 -51 -194t46 -104t132 -44v-59zM674 1243l-228 -602h480zM600 1785q0 19 10 25
t41 7h49q52 1 72 -13t37 -57l88 -234h-72l-202 230q-23 23 -23 42z" />
    <glyph glyph-name="Aacute" unicode="&#xc1;" horiz-adv-x="1492" 
d="M483 0h-467v59q66 5 115 66q50 62 113 215l395 985l-31 72h191l475 -1127q48 -114 91 -155t112 -56v-59h-545v59q88 4 129 30t41 83t-20 105q-20 47 -40 92l-79 184h-549l-58 -152q-51 -130 -51 -194t46 -104t132 -44v-59zM674 1243l-228 -602h480zM842 1817q51 0 51 -27
t-23 -47l-202 -230h-72l88 234q18 46 40 58t69 12h49z" />
    <glyph glyph-name="Acircumflex" unicode="&#xc2;" horiz-adv-x="1492" 
d="M483 0h-467v59q66 5 115 66q50 62 113 215l395 985l-31 72h191l475 -1127q48 -114 91 -155t112 -56v-59h-545v59q88 4 129 30t41 83t-20 105q-20 47 -40 92l-79 184h-549l-58 -152q-51 -130 -51 -194t46 -104t132 -44v-59zM674 1243l-228 -602h480zM612 1511h-90l174 304
h187l176 -304h-94l-195 191z" />
    <glyph glyph-name="Atilde" unicode="&#xc3;" horiz-adv-x="1492" 
d="M483 0h-467v59q66 5 115 66q50 62 113 215l395 985l-31 72h191l475 -1127q48 -114 91 -155t112 -56v-59h-545v59q88 4 129 30t41 83t-20 105q-20 47 -40 92l-79 184h-549l-58 -152q-51 -130 -51 -194t46 -104t132 -44v-59zM674 1243l-228 -602h480zM906 1686
q64 0 108 106l55 -31q-18 -105 -76 -165q-59 -60 -113 -60t-155 53t-134 53t-57 -22t-53 -82l-57 25q14 91 64 159t115 68t134 -36q68 -36 103 -52q36 -16 66 -16z" />
    <glyph glyph-name="Adieresis" unicode="&#xc4;" horiz-adv-x="1492" 
d="M483 0h-467v59q66 5 115 66q50 62 113 215l395 985l-31 72h191l475 -1127q48 -114 91 -155t112 -56v-59h-545v59q88 4 129 30t41 83t-20 105q-20 47 -40 92l-79 184h-549l-58 -152q-51 -130 -51 -194t46 -104t132 -44v-59zM674 1243l-228 -602h480zM428 1663q0 41 30 71
t70 30t71 -30q30 -30 30 -71t-30 -71t-71 -30q-40 0 -70 30t-30 71zM862 1663q0 41 30 71t71 30t71 -30t29 -71q0 -41 -30 -71q-31 -30 -71 -30t-70 30t-30 71z" />
    <glyph glyph-name="Aring" unicode="&#xc5;" horiz-adv-x="1492" 
d="M483 0h-467v59q66 5 115 66q50 62 113 215l395 985l-31 72h191l475 -1127q48 -114 91 -155t112 -56v-59h-545v59q88 4 129 30t41 83t-20 105q-20 47 -40 92l-79 184h-549l-58 -152q-51 -130 -51 -194t46 -104t132 -44v-59zM674 1243l-228 -602h480zM571 1690q1 36 15 68
q47 102 162 106q72 0 122 -52t52 -105q1 -131 -106 -179q-71 -31 -137 0q-64 28 -93 93q-15 32 -15 69zM633 1690q0 -47 33 -81q34 -34 80 -34t80 34t34 81q0 48 -34 80t-81 32t-79 -32t-33 -80z" />
    <glyph glyph-name="AE" unicode="&#xc6;" horiz-adv-x="2027" 
d="M1540 874q0 65 -18 125h61l172 -512h-59q-78 126 -145 167.5t-205 41.5h-295l133 -432q39 -134 61.5 -163t42 -35.5t47.5 -6.5h209q137 0 199.5 62.5t94.5 117t65 115.5h67l-67 -354h-1055v59q96 -4 137 50.5t12 140.5l-143 446h-446q-168 -377 -168 -493q0 -66 45 -103
t129 -41v-59h-457v59q66 12 109.5 61.5t107.5 188.5l350 793q37 89 37 139q0 91 -147 96v60h1200l102 -303h-63q-125 155 -214 199t-235 44h-356l184 -581h352q156 0 156 118zM666 1268q-85 -167 -148 -315t-84 -197h402z" />
    <glyph glyph-name="Ccedilla" unicode="&#xc7;" horiz-adv-x="1579" 
d="M1380 1018q-176 334 -464 334q-248 0 -390 -142q-182 -182 -182 -502t207 -526q137 -137 364 -137q188 0 306 87t174 269h63l-6 -299q-151 -86 -319 -106.5t-213 -20.5h-38q-38 0 -55 2l-22 -43q55 -10 87 -43.5t32 -80.5q0 -78 -65.5 -124t-207.5 -42v53q72 -2 114 19.5
t42 64.5q0 67 -100 76l69 127q-293 32 -473 225t-180 477q0 178 70.5 315.5t184.5 230.5t255 141t272 48q279 0 490 -94l53 -309h-68z" />
    <glyph glyph-name="Egrave" unicode="&#xc8;" horiz-adv-x="1343" 
d="M1073 477h-59q-17 117 -83 168t-212 51h-262v-426q0 -72 7 -114q14 -81 119 -90q415 -44 582 150q43 50 78 114h66l-84 -330h-1176v59q126 -4 172 36q45 40 45 147v921q0 101 -45 139t-172 35v60h1145l12 -301h-59q-35 117 -114 179t-234 62h-342v-581h276q125 0 201 50
t80 171h59v-500zM526 1785q0 19 10 25t42 7h49q51 1 71 -13t37 -57l88 -234h-71l-203 230q-23 23 -23 42z" />
    <glyph glyph-name="Eacute" unicode="&#xc9;" horiz-adv-x="1343" 
d="M1073 477h-59q-17 117 -83 168t-212 51h-262v-426q0 -72 7 -114q14 -81 119 -90q415 -44 582 150q43 50 78 114h66l-84 -330h-1176v59q126 -4 172 36q45 40 45 147v921q0 101 -45 139t-172 35v60h1145l12 -301h-59q-35 117 -114 179t-234 62h-342v-581h276q125 0 201 50
t80 171h59v-500zM768 1817q51 0 51 -26t-22 -48l-203 -230h-72l88 234q18 45 39 57q22 13 70 13h49z" />
    <glyph glyph-name="Ecircumflex" unicode="&#xca;" horiz-adv-x="1343" 
d="M1073 477h-59q-17 117 -83 168t-212 51h-262v-426q0 -72 7 -114q14 -81 119 -90q415 -44 582 150q43 50 78 114h66l-84 -330h-1176v59q126 -4 172 36q45 40 45 147v921q0 101 -45 139t-172 35v60h1145l12 -301h-59q-35 117 -114 179t-234 62h-342v-581h276q125 0 201 50
t80 171h59v-500zM494 1511h-91l175 304h186l176 -304h-94l-195 191z" />
    <glyph glyph-name="Edieresis" unicode="&#xcb;" horiz-adv-x="1343" 
d="M1073 477h-59q-17 117 -83 168t-212 51h-262v-426q0 -72 7 -114q14 -81 119 -90q415 -44 582 150q43 50 78 114h66l-84 -330h-1176v59q126 -4 172 36q45 40 45 147v921q0 101 -45 139t-172 35v60h1145l12 -301h-59q-35 117 -114 179t-234 62h-342v-581h276q125 0 201 50
t80 171h59v-500zM385 1663q0 41 30 71q31 30 71 30t70 -30t30 -71t-30 -71t-71 -30t-71 30t-29 71zM819 1663q0 41 30 71t71 30q40 0 70 -30t30 -71t-30 -71t-70 -30t-71 30q-30 30 -30 71z" />
    <glyph glyph-name="Igrave" unicode="&#xcc;" horiz-adv-x="724" 
d="M680 1397v-60q-121 5 -171 -31t-50 -135v-935q0 -101 46 -142t175 -35v-59h-635v59q186 -6 213 87q10 34 10 83v942q0 96 -46 133t-177 33v60h635zM217 1785q0 19 10 25t41 7h49q51 1 71 -13t38 -57l88 -234h-72l-202 230q-23 23 -23 42z" />
    <glyph glyph-name="Iacute" unicode="&#xcd;" horiz-adv-x="724" 
d="M680 1397v-60q-121 5 -171 -31t-50 -135v-935q0 -101 46 -142t175 -35v-59h-635v59q186 -6 213 87q10 34 10 83v942q0 96 -46 133t-177 33v60h635zM459 1817q51 0 51 -27t-23 -47l-202 -230h-72l88 234q18 46 40 58t69 12h49z" />
    <glyph glyph-name="Icircumflex" unicode="&#xce;" horiz-adv-x="724" 
d="M680 1397v-60q-121 5 -171 -31t-50 -135v-935q0 -101 46 -142t175 -35v-59h-635v59q186 -6 213 87q10 34 10 83v942q0 96 -46 133t-177 33v60h635zM184 1511h-90l174 304h187l176 -304h-94l-195 191z" />
    <glyph glyph-name="Idieresis" unicode="&#xcf;" horiz-adv-x="724" 
d="M680 1397v-60q-121 5 -171 -31t-50 -135v-935q0 -101 46 -142t175 -35v-59h-635v59q186 -6 213 87q10 34 10 83v942q0 96 -46 133t-177 33v60h635zM45 1663q0 41 30 71q31 30 71 30t70 -30t30 -71t-30 -71t-71 -30t-71 30t-29 71zM479 1663q0 41 30 71t71 30q40 0 70 -30
t30 -71t-30 -71t-70 -30t-71 30q-30 30 -30 71z" />
    <glyph glyph-name="Eth" unicode="&#xd0;" horiz-adv-x="1728" 
d="M834 1397q361 0 567.5 -198t206.5 -497t-215 -509q-99 -99 -242 -146t-391 -47h-705v59q141 -4 185.5 37t44.5 144v430h-226v59h226v426q0 103 -45 144.5t-185 37.5v60h779zM475 729h428v-59h-428v-391q0 -117 60.5 -168.5t212.5 -51.5t274.5 33t210.5 121
q160 160 160 458q-1 298 -185 482t-508 184h-225v-608z" />
    <glyph glyph-name="Ntilde" unicode="&#xd1;" horiz-adv-x="1728" 
d="M1391 1090q-1 129 -63 187t-185 60v60h547v-60q-129 -8 -175 -80q-45 -72 -47 -239v-789q0 -27 6 -61t10 -71q5 -37 10 -67t5 -48h-108q-47 85 -160 198l-858 893v-786q-1 -113 65 -167t187 -61v-59h-574v59q113 -9 179 55t65 173v860l-80 82q-51 54 -92 79t-105 29v60
h304l1069 -1100v793zM1020 1686q67 0 113 106l55 -31q-18 -105 -76 -165q-59 -60 -113 -60t-155 53t-134 53q-32 0 -57 -22q-25 -23 -53 -82l-57 25q14 91 64 159t115 68t134 -36q68 -36 102 -52t62 -16z" />
    <glyph glyph-name="Ograve" unicode="&#xd2;" horiz-adv-x="1665" 
d="M849 1421q163 0 295 -63q261 -124 355 -399q45 -130 45 -254q0 -277 -166 -484q-86 -106 -222 -176t-303 -70q-322 0 -527 197t-205 517q0 321 207 528q204 204 521 204zM495 1223q-159 -157 -159 -447t135 -504q66 -102 163 -164q98 -62 206 -62q214 -1 351 146
q138 147 138 418q0 320 -145 530t-381 212q-177 0 -308 -129zM686 1785q0 19 10 25t41 7h49q52 1 72 -13t37 -57l88 -234h-72l-202 230q-23 23 -23 42z" />
    <glyph glyph-name="Oacute" unicode="&#xd3;" horiz-adv-x="1665" 
d="M849 1421q163 0 295 -63q261 -124 355 -399q45 -130 45 -254q0 -277 -166 -484q-86 -106 -222 -176t-303 -70q-322 0 -527 197t-205 517q0 321 207 528q204 204 521 204zM495 1223q-159 -157 -159 -447t135 -504q66 -102 163 -164q98 -62 206 -62q214 -1 351 146
q138 147 138 418q0 320 -145 530t-381 212q-177 0 -308 -129zM928 1817q51 0 51 -27t-23 -47l-202 -230h-72l88 234q18 46 40 58t69 12h49z" />
    <glyph glyph-name="Ocircumflex" unicode="&#xd4;" horiz-adv-x="1665" 
d="M849 1421q163 0 295 -63q261 -124 355 -399q45 -130 45 -254q0 -277 -166 -484q-86 -106 -222 -176t-303 -70q-322 0 -527 197t-205 517q0 321 207 528q204 204 521 204zM495 1223q-159 -157 -159 -447t135 -504q66 -102 163 -164q98 -62 206 -62q214 -1 351 146
q138 147 138 418q0 320 -145 530t-381 212q-177 0 -308 -129zM653 1511h-90l174 304h187l176 -304h-94l-195 191z" />
    <glyph glyph-name="Otilde" unicode="&#xd5;" horiz-adv-x="1665" 
d="M849 1421q163 0 295 -63q261 -124 355 -399q45 -130 45 -254q0 -277 -166 -484q-86 -106 -222 -176t-303 -70q-322 0 -527 197t-205 517q0 321 207 528q204 204 521 204zM495 1223q-159 -157 -159 -447t135 -504q66 -102 163 -164q98 -62 206 -62q214 -1 351 146
q138 147 138 418q0 320 -145 530t-381 212q-177 0 -308 -129zM992 1686q64 0 108 106l55 -31q-18 -105 -76 -165q-59 -60 -113 -60t-155 53t-134 53t-57 -22t-53 -82l-57 25q14 91 64 159t115 68t134 -36q68 -36 103 -52q36 -16 66 -16z" />
    <glyph glyph-name="Odieresis" unicode="&#xd6;" horiz-adv-x="1665" 
d="M849 1421q163 0 295 -63q261 -124 355 -399q45 -130 45 -254q0 -277 -166 -484q-86 -106 -222 -176t-303 -70q-322 0 -527 197t-205 517q0 321 207 528q204 204 521 204zM495 1223q-159 -157 -159 -447t135 -504q66 -102 163 -164q98 -62 206 -62q214 -1 351 146
q138 147 138 418q0 320 -145 530t-381 212q-177 0 -308 -129zM514 1663q0 41 30 71t70 30t71 -30q30 -30 30 -71t-30 -71t-71 -30q-40 0 -70 30t-30 71zM948 1663q0 41 30 71t71 30t71 -30t29 -71q0 -41 -30 -71q-31 -30 -71 -30t-70 30t-30 71z" />
    <glyph glyph-name="multiply" unicode="&#xd7;" horiz-adv-x="1368" 
d="M270 1028l414 -414l416 416l76 -76l-416 -415l416 -416l-76 -76l-416 416l-414 -414l-75 76l413 414l-413 413z" />
    <glyph glyph-name="Oslash" unicode="&#xd8;" horiz-adv-x="1665" 
d="M1329 610q0 211 -44 325t-66 148l-740 -825q157 -213 366 -213q210 0 347 147.5t137 417.5zM324 174q-203 207 -203 522q0 314 205.5 519.5t511.5 205.5q251 0 456 -159l150 168l47 -41l-152 -170q205 -219 205 -523q0 -115 -40 -241.5t-126 -233t-222 -176.5t-339 -70
t-310.5 65.5t-137.5 92.5l-146 -162l-45 39zM481 1209q-145 -143 -145 -422t113 -474l737 826q-149 213 -383 213q-177 0 -322 -143z" />
    <glyph glyph-name="Ugrave" unicode="&#xd9;" horiz-adv-x="1642" 
d="M1405 565q0 -588 -586 -590q-291 0 -444 138q-142 124 -142 321v711q-1 110 -27 140q-49 56 -183 52v60h632v-60q-199 5 -223 -89q-8 -32 -8 -72v-713q0 -182 112 -291t326 -109t343 128q128 128 128 401v471q0 144 -50 209t-185 65v60h518v-60q-116 -13 -163 -60
q-48 -48 -48 -194v-518zM676 1784q0 20 10 26t41 7h49q52 1 72 -13t37 -57l88 -234h-72l-203 230q-22 21 -22 41z" />
    <glyph glyph-name="Uacute" unicode="&#xda;" horiz-adv-x="1642" 
d="M1405 565q0 -588 -586 -590q-291 0 -444 138q-142 124 -142 321v711q-1 110 -27 140q-49 56 -183 52v60h632v-60q-199 5 -223 -89q-8 -32 -8 -72v-713q0 -182 112 -291t326 -109t343 128q128 128 128 401v471q0 144 -50 209t-185 65v60h518v-60q-116 -13 -163 -60
q-48 -48 -48 -194v-518zM868 1817h50q69 0 49 -42q-10 -22 -21 -32l-203 -230h-71l88 234q18 46 40 58t68 12z" />
    <glyph glyph-name="Ucircumflex" unicode="&#xdb;" horiz-adv-x="1642" 
d="M1405 565q0 -588 -586 -590q-291 0 -444 138q-142 124 -142 321v711q-1 110 -27 140q-49 56 -183 52v60h632v-60q-199 5 -223 -89q-8 -32 -8 -72v-713q0 -182 112 -291t326 -109t343 128q128 128 128 401v471q0 144 -50 209t-185 65v60h518v-60q-116 -13 -163 -60
q-48 -48 -48 -194v-518zM643 1511h-90l174 304h186l177 -304h-95l-194 191z" />
    <glyph glyph-name="Udieresis" unicode="&#xdc;" horiz-adv-x="1642" 
d="M1405 565q0 -588 -586 -590q-291 0 -444 138q-142 124 -142 321v711q-1 110 -27 140q-49 56 -183 52v60h632v-60q-199 5 -223 -89q-8 -32 -8 -72v-713q0 -182 112 -291t326 -109t343 128q128 128 128 401v471q0 144 -50 209t-185 65v60h518v-60q-116 -13 -163 -60
q-48 -48 -48 -194v-518zM504 1663q0 41 30 71t70 30t71 -30q30 -30 30 -71t-30 -71t-71 -30q-40 0 -70 30t-30 71zM938 1663q0 41 30 71t70 30t71 -30q30 -30 30 -71t-30 -71t-71 -30q-40 0 -70 30t-30 71z" />
    <glyph glyph-name="Yacute" unicode="&#xdd;" horiz-adv-x="1492" 
d="M627 1337q-168 7 -168 -78q0 -39 19 -77t67 -109l270 -403l217 305q107 155 107 231q0 113 -158 131v60h498v-60q-69 0 -135 -59t-170 -215l-332 -481v-340q0 -101 42 -143t165 -40v-59h-603v59q122 0 164 40q41 40 41 143v352l-381 565q-74 110 -112 135q-62 40 -142 43
v60h611v-60zM842 1817q51 0 51 -27t-23 -47l-202 -230h-72l88 234q18 46 40 58t69 12h49z" />
    <glyph glyph-name="Thorn" unicode="&#xde;" horiz-adv-x="1280" 
d="M698 436q115 0 204 70.5t89 214.5t-95 237t-253 93h-188v-815q0 -108 47.5 -144.5t179.5 -32.5v-59h-629v59q171 -6 191 57.5t20 116.5v928q0 104 -45.5 142t-173.5 34v60h621v-60q-117 4 -164 -32t-47 -142v-53h125q230 0 305 -18q160 -35 243.5 -123t83.5 -221
q0 -171 -134 -282.5t-319 -111.5q-184 0 -184 49q0 37 46 37z" />
    <glyph glyph-name="germandbls" unicode="&#xdf;" horiz-adv-x="1153" 
d="M41 848v41q0 27 49 38t67 28q17 17 47.5 146.5t97.5 196.5q123 123 296 123t283 -83t110 -204t-86.5 -199t-195.5 -97v-4q154 -28 252 -143.5t98 -284t-99 -295.5t-229 -127q-76 0 -129 39t-53 85t22.5 70.5t60.5 24.5t48 -23.5t14 -53.5t16.5 -53.5t65.5 -23.5t91 68.5
t38 172.5q0 202 -99 342.5t-255 158.5v57q133 20 203.5 89t70.5 174t-66.5 175t-173.5 70q-106 0 -174.5 -75t-68.5 -210v-850q0 -78 22.5 -121t98.5 -47v-53h-424v53q86 -2 114.5 35t28.5 111v649h-141z" />
    <glyph glyph-name="agrave" unicode="&#xe0;" horiz-adv-x="960" 
d="M301 645q0 -27 -135 -72q-16 0 -36 42q-19 42 -19 90q0 103 106 170t263 67t226 -61t68 -185v-475q0 -102 55 -102q35 0 74 22l19 -51q-94 -113 -174 -113q-127 0 -134 164q-148 -164 -299 -164q-104 1 -171 61q-66 60 -66 160t74 159q74 60 274 126l188 64v160
q0 79 -53 125t-132 46t-130 -33q-51 -35 -51 -73t45 -103q8 -13 8 -24zM244 242q0 -60 43 -100t110 -40q115 0 217 113v279l-243 -107q-127 -55 -127 -145zM334 1342q0 20 10 26t41 6h49q52 0 72 -13t37 -56l88 -234h-72l-203 229q-22 22 -22 42z" />
    <glyph glyph-name="aacute" unicode="&#xe1;" horiz-adv-x="960" 
d="M301 645q0 -27 -135 -72q-16 0 -36 42q-19 42 -19 90q0 103 106 170t263 67t226 -61t68 -185v-475q0 -102 55 -102q35 0 74 22l19 -51q-94 -113 -174 -113q-127 0 -134 164q-148 -164 -299 -164q-104 1 -171 61q-66 60 -66 160t74 159q74 60 274 126l188 64v160
q0 79 -53 125t-132 46t-130 -33q-51 -35 -51 -73t45 -103q8 -13 8 -24zM244 242q0 -60 43 -100t110 -40q115 0 217 113v279l-243 -107q-127 -55 -127 -145zM526 1374h49q51 0 51 -25q1 -25 -22 -49l-203 -229h-71l88 234q18 44 38 57q21 12 70 12z" />
    <glyph glyph-name="acircumflex" unicode="&#xe2;" horiz-adv-x="960" 
d="M301 645q0 -27 -135 -72q-16 0 -36 42q-19 42 -19 90q0 103 106 170t263 67t226 -61t68 -185v-475q0 -102 55 -102q35 0 74 22l19 -51q-94 -113 -174 -113q-127 0 -134 164q-148 -164 -299 -164q-104 1 -171 61q-66 60 -66 160t74 159q74 60 274 126l188 64v160
q0 79 -53 125t-132 46t-130 -33q-51 -35 -51 -73t45 -103q8 -13 8 -24zM244 242q0 -60 43 -100t110 -40q115 0 217 113v279l-243 -107q-127 -55 -127 -145zM301 1069h-90l174 303h186l177 -303h-95l-194 191z" />
    <glyph glyph-name="atilde" unicode="&#xe3;" horiz-adv-x="960" 
d="M301 645q0 -27 -135 -72q-16 0 -36 42q-19 42 -19 90q0 103 106 170t263 67t226 -61t68 -185v-475q0 -102 55 -102q35 0 74 22l19 -51q-94 -113 -174 -113q-127 0 -134 164q-148 -164 -299 -164q-104 1 -171 61q-66 60 -66 160t74 159q74 60 274 126l188 64v160
q0 79 -53 125t-132 46t-130 -33q-51 -35 -51 -73t45 -103q8 -13 8 -24zM244 242q0 -60 43 -100t110 -40q115 0 217 113v279l-243 -107q-127 -55 -127 -145zM803 1319q-18 -105 -76 -165q-59 -60 -113 -60t-155 53t-134 53q-32 0 -57 -22t-53 -82l-57 24q14 92 64 160t114 68
t134 -36t104 -52t61 -17q66 0 113 107z" />
    <glyph glyph-name="adieresis" unicode="&#xe4;" horiz-adv-x="960" 
d="M301 645q0 -27 -135 -72q-16 0 -36 42q-19 42 -19 90q0 103 106 170t263 67t226 -61t68 -185v-475q0 -102 55 -102q35 0 74 22l19 -51q-94 -113 -174 -113q-127 0 -134 164q-148 -164 -299 -164q-104 1 -171 61q-66 60 -66 160t74 159q74 60 274 126l188 64v160
q0 79 -53 125t-132 46t-130 -33q-51 -35 -51 -73t45 -103q8 -13 8 -24zM244 242q0 -60 43 -100t110 -40q115 0 217 113v279l-243 -107q-127 -55 -127 -145zM162 1221q0 41 30 71t70 29q41 0 71 -30q29 -31 29 -71t-30 -70t-70 -30q-41 0 -71 30q-29 30 -29 71zM596 1221
q0 41 30 71t70 29q40 0 71 -30q30 -31 30 -71t-30 -70t-71 -30q-40 0 -70 30t-30 71z" />
    <glyph glyph-name="aring" unicode="&#xe5;" horiz-adv-x="960" 
d="M301 645q0 -27 -135 -72q-16 0 -36 42q-19 42 -19 90q0 103 106 170t263 67t226 -61t68 -185v-475q0 -102 55 -102q35 0 74 22l19 -51q-94 -113 -174 -113q-127 0 -134 164q-148 -164 -299 -164q-104 1 -171 61q-66 60 -66 160t74 159q74 60 274 126l188 64v160
q0 79 -53 125t-132 46t-130 -33q-51 -35 -51 -73t45 -103q8 -13 8 -24zM244 242q0 -60 43 -100t110 -40q115 0 217 113v279l-243 -107q-127 -55 -127 -145zM480 1421q73 0 124 -51t51 -124t-51 -124t-123 -51t-124 52t-52 125t51 123t124 50zM367 1247q1 -47 33 -81t79 -34
t81 34t34 81t-34 80t-81 33t-79 -33t-33 -80z" />
    <glyph glyph-name="ae" unicode="&#xe6;" horiz-adv-x="1429" 
d="M1049 123q156 0 276 137l35 -33q-59 -117 -159.5 -183.5t-217.5 -66.5q-207 0 -338 191q-170 -191 -342 -191q-98 0 -161.5 61.5t-63.5 162.5t114.5 185t421.5 142v150q0 94 -46 146.5t-115 52.5t-130 -30t-61 -81q0 -35 24.5 -70t24.5 -46q0 -20 -51 -46t-70 -26
q-30 0 -53.5 49t-23.5 91q0 86 121.5 155t283.5 69q86 0 139.5 -29.5t98.5 -101.5q106 131 248 131q279 0 333 -317l-563 -125q0 -123 15.5 -189.5t76 -127t183.5 -60.5zM960 872q-80 0 -132 -62t-52 -189v-62l381 88q-16 106 -66.5 165.5t-130.5 59.5zM244 222
q0 -48 40 -87t102 -39t113.5 28t114.5 91v260q-308 -68 -339 -136.5t-31 -116.5z" />
    <glyph glyph-name="ccedilla" unicode="&#xe7;" horiz-adv-x="960" 
d="M459 -219q0 68 -101 76l74 131q-153 33 -250.5 159.5t-97.5 298.5q0 215 140.5 355.5t353.5 140.5q137 0 224 -52t87 -136q0 -41 -21.5 -64.5t-55.5 -23.5t-51.5 16t-29.5 39.5t-39.5 92.5t-158.5 69t-210 -95.5t-79 -265.5t99 -284.5t246 -114.5q148 0 273 127l41 -29
q-66 -117 -165 -180.5t-210 -63.5h-24t-23 5l-24 -48q55 -10 86.5 -43.5t31.5 -80.5q0 -78 -65.5 -124t-206.5 -42v53q72 -2 114 19.5t42 64.5z" />
    <glyph glyph-name="egrave" unicode="&#xe8;" horiz-adv-x="937" 
d="M510 -23q-187 0 -308 133q-122 133 -122 343t118 350q118 139 287 139t279 -106q109 -106 113 -254h-658q-8 -221 104 -340q113 -119 271 -119q74 1 129 25t119 88l35 -35q-150 -223 -367 -224zM684 639q-12 117 -68 180t-148 63q-91 0 -157 -66q-66 -67 -84 -177h457z
M324 1342q0 20 10 26t41 6h49q52 0 72 -13t36 -56l89 -234h-72l-203 229q-22 22 -22 42z" />
    <glyph glyph-name="eacute" unicode="&#xe9;" horiz-adv-x="937" 
d="M510 -23q-187 0 -308 133q-122 133 -122 343t118 350q118 139 287 139t279 -106q109 -106 113 -254h-658q-8 -221 104 -340q113 -119 271 -119q74 1 129 25t119 88l35 -35q-150 -223 -367 -224zM684 639q-12 117 -68 180t-148 63q-91 0 -157 -66q-66 -67 -84 -177h457z
M565 1374q51 0 51 -25t-22 -49l-203 -229h-72l89 234q17 44 37 56q20 13 71 13h49z" />
    <glyph glyph-name="ecircumflex" unicode="&#xea;" horiz-adv-x="937" 
d="M510 -23q-187 0 -308 133q-122 133 -122 343t118 350q118 139 287 139t279 -106q109 -106 113 -254h-658q-8 -221 104 -340q113 -119 271 -119q74 1 129 25t119 88l35 -35q-150 -223 -367 -224zM684 639q-12 117 -68 180t-148 63q-91 0 -157 -66q-66 -67 -84 -177h457z
M291 1069h-90l174 303h186l176 -303h-94l-194 191z" />
    <glyph glyph-name="edieresis" unicode="&#xeb;" horiz-adv-x="937" 
d="M510 -23q-187 0 -308 133q-122 133 -122 343t118 350q118 139 287 139t279 -106q109 -106 113 -254h-658q-8 -221 104 -340q113 -119 271 -119q74 1 129 25t119 88l35 -35q-150 -223 -367 -224zM684 639q-12 117 -68 180t-148 63q-91 0 -157 -66q-66 -67 -84 -177h457z
M152 1221q0 41 30 71t70 29q41 0 71 -30q29 -31 29 -71t-30 -70t-70 -30q-41 0 -71 30q-29 30 -29 71zM586 1221q0 41 30 71t70 29q41 0 71 -30q29 -31 29 -71t-30 -70t-70 -30q-41 0 -71 30q-29 30 -29 71z" />
    <glyph glyph-name="igrave" unicode="&#xec;" horiz-adv-x="532" 
d="M356 227q0 -96 28 -135t116 -39v-53h-463v53q99 0 129 34q29 34 31 149v520l-150 67v31l309 88v-715zM123 1342q0 20 10 26t41 6h49q51 0 71 -13t38 -56l88 -234h-72l-203 229q-22 22 -22 42z" />
    <glyph glyph-name="iacute" unicode="&#xed;" horiz-adv-x="532" 
d="M356 227q0 -96 28 -135t116 -39v-53h-463v53q99 0 129 34q29 34 31 149v520l-150 67v31l309 88v-715zM365 1374q51 0 51 -26t-23 -48l-203 -229h-71l88 234q18 44 38 57q21 12 70 12h50z" />
    <glyph glyph-name="icircumflex" unicode="&#xee;" horiz-adv-x="532" 
d="M356 227q0 -96 28 -135t116 -39v-53h-463v53q99 0 129 34q29 34 31 149v520l-150 67v31l309 88v-715zM90 1069h-90l174 303h186l177 -303h-95l-194 191z" />
    <glyph glyph-name="idieresis" unicode="&#xef;" horiz-adv-x="532" 
d="M356 227q0 -96 28 -135t116 -39v-53h-463v53q99 0 129 34q29 34 31 149v520l-150 67v31l309 88v-715zM-49 1221q0 41 30 71q31 30 71 29q40 0 70 -30q30 -31 30 -71t-30 -70t-71 -30t-71 30t-29 71zM385 1221q0 41 30 71q31 30 71 29q40 0 70 -30q30 -31 30 -71t-30 -70
t-71 -30t-71 30t-29 71z" />
    <glyph glyph-name="eth" unicode="&#xf0;" horiz-adv-x="1067" 
d="M492 883q-110 0 -183 -87t-73 -254t84.5 -336t248.5 -169q123 0 192.5 91t69.5 248t-52 272.5t-114.5 175t-172.5 59.5zM991 470q0 -120 -46 -220t-145.5 -186.5t-278.5 -86.5t-312 139.5t-133 339.5t132 343t312 143q47 0 85 -10t97 -51l5 4q-27 61 -65 135t-103 151
l-203 -133l-33 45l197 131q-79 84 -164 148l72 51q109 -53 198 -127l193 127l32 -45l-180 -121q245 -227 292.5 -442t47.5 -335z" />
    <glyph glyph-name="ntilde" unicode="&#xf1;" horiz-adv-x="1153" 
d="M709 942q117 0 195 -75t77 -222v-424q0 -100 31 -134t118 -34v-53h-468v53q99 0 129 38t30 138v404q0 82 -49 135t-135 53q-158 0 -283 -123v-465q0 -108 22 -135q39 -49 142 -45v-53h-477v53q90 0 121 33t33 145v523l-146 67v29l305 92v-176q176 176 355 176zM899 1319
q-18 -105 -76 -165q-59 -60 -113 -60t-155 53t-134 53t-57 -22t-53 -82l-57 24q14 92 64 160t114 68t134 -36q69 -36 104 -52t61 -17q68 0 113 107z" />
    <glyph glyph-name="ograve" unicode="&#xf2;" horiz-adv-x="1087" 
d="M84 459q0 104 35 192q72 181 243 254q84 37 182 37t183 -37q170 -75 242 -251q35 -87 35 -188q0 -209 -132 -347q-131 -142 -327 -142t-329 137q-132 138 -132 345zM244 572q0 -204 90 -371q90 -166 248 -164q115 0 187 85q73 85 75 222q0 197 -76 356q-84 180 -246 183
q-182 1 -252 -175q-26 -64 -26 -136zM397 1342q1 20 11 26t41 6h49q51 0 71 -13t37 -56l88 -234h-71l-203 229q-23 23 -23 42z" />
    <glyph glyph-name="oacute" unicode="&#xf3;" horiz-adv-x="1087" 
d="M84 459q0 104 35 192q72 181 243 254q84 37 182 37t183 -37q170 -75 242 -251q35 -87 35 -188q0 -209 -132 -347q-131 -142 -327 -142t-329 137q-132 138 -132 345zM244 572q0 -204 90 -371q90 -166 248 -164q115 0 187 85q73 85 75 222q0 197 -76 356q-84 180 -246 183
q-182 1 -252 -175q-26 -64 -26 -136zM639 1374q51 0 51 -25t-22 -49l-203 -229h-72l88 234q17 43 38 56t71 13h49z" />
    <glyph glyph-name="ocircumflex" unicode="&#xf4;" horiz-adv-x="1087" 
d="M84 459q0 104 35 192q72 181 243 254q84 37 182 37t183 -37q170 -75 242 -251q35 -87 35 -188q0 -209 -132 -347q-131 -142 -327 -142t-329 137q-132 138 -132 345zM244 572q0 -204 90 -371q90 -166 248 -164q115 0 187 85q73 85 75 222q0 197 -76 356q-84 180 -246 183
q-182 1 -252 -175q-26 -64 -26 -136zM365 1069h-91l175 303h186l176 -303h-94l-195 191z" />
    <glyph glyph-name="otilde" unicode="&#xf5;" horiz-adv-x="1087" 
d="M84 459q0 104 35 192q72 181 243 254q84 37 182 37t183 -37q170 -75 242 -251q35 -87 35 -188q0 -209 -132 -347q-131 -142 -327 -142t-329 137q-132 138 -132 345zM244 572q0 -204 90 -371q90 -166 248 -164q115 0 187 85q73 85 75 222q0 197 -76 356q-84 180 -246 183
q-182 1 -252 -175q-26 -64 -26 -136zM866 1319q-18 -108 -77 -167q-58 -58 -112 -58t-123 36l-102 54q-34 16 -65 16t-55 -22t-53 -82l-58 24q15 92 65 160t114 68t133 -36t104 -52t61 -17q68 0 113 107z" />
    <glyph glyph-name="odieresis" unicode="&#xf6;" horiz-adv-x="1087" 
d="M84 459q0 104 35 192q72 181 243 254q84 37 182 37t183 -37q170 -75 242 -251q35 -87 35 -188q0 -209 -132 -347q-131 -142 -327 -142t-329 137q-132 138 -132 345zM244 572q0 -204 90 -371q90 -166 248 -164q115 0 187 85q73 85 75 222q0 197 -76 356q-84 180 -246 183
q-182 1 -252 -175q-26 -64 -26 -136zM225 1221q0 41 30 71t71 29q40 0 70 -30q30 -31 30 -71t-30 -70t-70 -30t-71 30q-30 30 -30 71zM659 1221q0 41 30 71t71 29q40 0 70 -30q30 -31 30 -71t-30 -70t-70 -30t-71 30q-30 30 -30 71z" />
    <glyph glyph-name="divide" unicode="&#xf7;" horiz-adv-x="1368" 
d="M756 131q0 -31 -20.5 -52.5t-51.5 -21.5t-52.5 21.5t-21.5 52.5t21.5 51.5t52.5 20.5t51.5 -20.5t20.5 -51.5zM756 950.5q0 -30.5 -20.5 -52t-51.5 -21.5t-52.5 21.5t-21.5 52t21.5 51t52.5 20.5t51.5 -20.5t20.5 -51zM1223 594v-109h-1080v109h1080z" />
    <glyph glyph-name="oslash" unicode="&#xf8;" horiz-adv-x="1087" 
d="M522 883q-183 0 -230.5 -120.5t-47.5 -188.5q0 -104 19.5 -188.5t43.5 -127.5l436 483q-84 142 -221 142zM197 135q-113 146 -113 339t133.5 330.5t327.5 137.5q80 0 157.5 -27.5t131.5 -74.5l139 155l39 -37l-140 -153q132 -143 132 -344.5t-132 -342.5t-320 -141
q-187 0 -316 119l-144 -157l-39 36zM568 37q129 0 202.5 86.5t73.5 220.5q0 183 -72 348l-440 -487q35 -72 99.5 -120t136.5 -48z" />
    <glyph glyph-name="ugrave" unicode="&#xf9;" horiz-adv-x="1153" 
d="M633 922q112 0 328 16v-745q0 -80 36 -98q18 -9 47 -9t68 4v-53l-311 -57v178q-78 -86 -170 -133q-151 -77 -284 -30q-102 35 -149 145q-24 54 -24 128v457q0 73 -32 103t-128 40v54q280 7 320 16v-631q0 -201 196 -203q139 0 271 119v484q1 93 -33 127t-135 34v54z
M430 1342q0 20 10 26t41 6h49q52 0 72 -13t37 -56l88 -234h-72l-202 229q-23 23 -23 42z" />
    <glyph glyph-name="uacute" unicode="&#xfa;" horiz-adv-x="1153" 
d="M633 922q112 0 328 16v-745q0 -80 36 -98q18 -9 47 -9t68 4v-53l-311 -57v178q-78 -86 -170 -133q-151 -77 -284 -30q-102 35 -149 145q-24 54 -24 128v457q0 73 -32 103t-128 40v54q280 7 320 16v-631q0 -201 196 -203q139 0 271 119v484q1 93 -33 127t-135 34v54z
M672 1374q51 0 51 -26t-23 -48l-202 -229h-72l88 234q18 44 38 57q21 12 71 12h49z" />
    <glyph glyph-name="ucircumflex" unicode="&#xfb;" horiz-adv-x="1153" 
d="M633 922q112 0 328 16v-745q0 -80 36 -98q18 -9 47 -9t68 4v-53l-311 -57v178q-78 -86 -170 -133q-151 -77 -284 -30q-102 35 -149 145q-24 54 -24 128v457q0 73 -32 103t-128 40v54q280 7 320 16v-631q0 -201 196 -203q139 0 271 119v484q1 93 -33 127t-135 34v54z
M397 1069h-90l174 303h187l176 -303h-94l-195 191z" />
    <glyph glyph-name="udieresis" unicode="&#xfc;" horiz-adv-x="1153" 
d="M633 922q112 0 328 16v-745q0 -80 36 -98q18 -9 47 -9t68 4v-53l-311 -57v178q-78 -86 -170 -133q-151 -77 -284 -30q-102 35 -149 145q-24 54 -24 128v457q0 73 -32 103t-128 40v54q280 7 320 16v-631q0 -201 196 -203q139 0 271 119v484q1 93 -33 127t-135 34v54z
M258 1221q0 41 30 71t70 29q40 0 71 -30q30 -31 30 -71t-30 -70t-71 -30q-40 0 -70 30t-30 71zM692 1221q0 41 30 71t71 29q41 0 71 -30q30 -31 29 -71q0 -40 -30 -70q-31 -30 -71 -30t-70 30t-30 71z" />
    <glyph glyph-name="yacute" unicode="&#xfd;" horiz-adv-x="1024" 
d="M459 868q-123 -7 -123 -67q0 -54 57 -176l197 -437l129 338q69 179 69 230t-28 77q-29 26 -96 35v54h337v-54q-64 -12 -97 -54q-34 -42 -87 -175l-287 -764q-40 -111 -110 -185t-155 -75q-85 0 -130 32t-45 73q0 40 25 66t53 26t52 -20q25 -20 47 -35q23 -15 55 -15
q59 0 103 56t91 192l-336 737q-35 80 -66 109q-30 28 -89 32v54h434v-54zM608 1374q51 0 51 -25t-22 -49l-203 -229h-72l89 234q17 44 37 56q20 13 71 13h49z" />
    <glyph glyph-name="thorn" unicode="&#xfe;" horiz-adv-x="1173" 
d="M342 -186q0 -88 38 -118t144 -28v-53h-489v53q80 0 113.5 32t33.5 107v1426l-147 70v28l307 90v-651q160 172 333 172t284.5 -124t111.5 -324t-144.5 -358.5t-359.5 -158.5q-117 0 -225 76v-239zM342 358q0 -135 79 -225t207 -90t205.5 101.5t77.5 279.5t-87.5 289.5
t-224.5 111.5q-136 0 -257 -125v-342z" />
    <glyph glyph-name="ydieresis" unicode="&#xff;" horiz-adv-x="1024" 
d="M459 868q-123 -7 -123 -67q0 -54 57 -176l197 -437l129 338q69 179 69 230t-28 77q-29 26 -96 35v54h337v-54q-64 -12 -97 -54q-34 -42 -87 -175l-287 -764q-40 -111 -110 -185t-155 -75q-85 0 -130 32t-45 73q0 40 25 66t53 26t52 -20q25 -20 47 -35q23 -15 55 -15
q59 0 103 56t91 192l-336 737q-35 80 -66 109q-30 28 -89 32v54h434v-54zM195 1221q-1 41 29 71t71 29q41 0 71 -30q30 -31 30 -71t-30 -70t-71 -30t-71 30q-29 30 -29 71zM629 1221q-1 41 29 71t71 29q41 0 71 -30q30 -31 30 -71t-30 -70t-71 -30t-71 30q-29 30 -29 71z
" />
    <glyph glyph-name="dotlessi" unicode="&#x131;" horiz-adv-x="532" 
d="M356 227q0 -96 28 -135t116 -39v-53h-463v53q98 0 129 35.5t31 147.5v520l-150 67v31l309 88v-715z" />
    <glyph glyph-name="Lslash" unicode="&#x141;" horiz-adv-x="1409" 
d="M23 0v59q152 -4 197.5 34.5t45.5 148.5v350l-184 -148v115l184 148v460q0 98 -49.5 136t-185.5 34v60h659v-60q-137 4 -185 -33t-48 -149v-315l266 213v-115l-266 -213v-492q0 -90 42 -132t152 -42h293q191 0 275 114t118 169h62l-96 -342h-1280z" />
    <glyph glyph-name="lslash" unicode="&#x142;" horiz-adv-x="555" 
d="M334 233q0 -107 22.5 -135t50 -36.5t72.5 -8.5v-53h-454v53q90 4 119.5 36t29.5 149v329l-207 -172v107l207 170v561l-149 63v35l309 90v-633l188 158v-104l-188 -158v-451z" />
    <glyph glyph-name="OE" unicode="&#x152;" horiz-adv-x="2134" 
d="M1860 475h-60q0 173 -87 202.5t-130 29.5h-188q4 -207 -91.5 -372t-261.5 -272v-4h625q111 0 193 74t147 219h66l-66 -352h-1212q-302 0 -492 202.5t-190 487.5q0 150 52 279t141 224t204 149.5t242 54.5h1222l15 -310h-54q-56 145 -121.5 197.5t-222.5 52.5h-563v-4
q257 -140 306.5 -303.5t60.5 -263.5h219q98 0 140 49t46 162h60v-502zM452.5 294.5q124.5 -224.5 338.5 -224.5q173 0 278 156.5t105 390.5q0 233 -54 382t-116 211t-121.5 89.5t-146.5 27.5t-162.5 -37t-160.5 -142t-85 -367t124.5 -486.5z" />
    <glyph glyph-name="oe" unicode="&#x153;" horiz-adv-x="1536" 
d="M1221 123q74 0 128 30.5t105 98.5l39 -25q-55 -117 -147.5 -183.5t-186.5 -66.5t-178 45.5t-143 122.5q-160 -168 -330 -168q-86 0 -164 39t-169 143.5t-91 303.5t123.5 339t256 140t215.5 -41t144 -115q115 156 278 156t259 -97t108 -263h-579q18 -459 332 -459z
M1085 883q-82 0 -133 -64.5t-61 -179.5h389q-8 111 -60.5 177.5t-134.5 66.5zM260 576q0 -255 65.5 -397t198.5 -142q104 0 162.5 83t58.5 293.5t-72 340t-183 129.5t-170.5 -87.5t-59.5 -219.5z" />
    <glyph glyph-name="Scaron" unicode="&#x160;" horiz-adv-x="1216" 
d="M1040 1028h-69q-23 154 -118 239t-237 85t-220 -54q-77 -54 -77 -140q-1 -85 53 -137t132 -96t163 -89q85 -44 168 -94q255 -152 255 -367q0 -154 -108 -264q-134 -136 -394 -136q-106 0 -230 27t-227 74l-6 356h70q18 -186 119 -281t261 -95t252 65q91 66 91 166
t-72 172q-49 49 -127 95t-163 93t-167 97t-129 98t-75 100q-27 53 -27 131q1 157 123 253q123 97 337 96t422 -115v-279zM786 1815h91l-175 -304h-186l-176 304h94l195 -191z" />
    <glyph glyph-name="scaron" unicode="&#x161;" horiz-adv-x="811" 
d="M117 307h53q12 -123 74 -197t152 -73q88 0 140 47t52 111t-42 106q-42 41 -142 88q-99 45 -153 75q-158 86 -161 230q0 108 85 178t222 70t256 -88v-217h-53q-44 245 -202 245q-79 0 -124 -38q-45 -40 -45 -100t34 -94t82 -58t144 -67q228 -105 232 -277q0 -115 -91 -192
t-237 -78q-147 -1 -276 75v254zM584 1372h90l-174 -303h-187l-176 303h94l195 -190z" />
    <glyph glyph-name="Ydieresis" unicode="&#x178;" horiz-adv-x="1492" 
d="M627 1337q-168 7 -168 -78q0 -39 19 -77t67 -109l270 -403l217 305q107 155 107 231q0 113 -158 131v60h498v-60q-69 0 -135 -59t-170 -215l-332 -481v-340q0 -101 42 -143t165 -40v-59h-603v59q122 0 164 40q41 40 41 143v352l-381 565q-74 110 -112 135q-62 40 -142 43
v60h611v-60zM428 1663q0 41 30 71t70 30t71 -30q30 -30 30 -71t-30 -71t-71 -30q-40 0 -70 30t-30 71zM862 1663q0 41 30 71t71 30t71 -30t29 -71q0 -41 -30 -71q-31 -30 -71 -30t-70 30t-30 71z" />
    <glyph glyph-name="Zcaron" unicode="&#x17d;" horiz-adv-x="1409" 
d="M80 0v59l975 1270h-449q-168 0 -239 -47q-72 -47 -125 -207h-60v322h1121v-47l-988 -1282h586q57 0 101 7t88 37q83 58 198 250h62l-93 -362h-1177zM883 1815h90l-174 -304h-187l-176 304h94l195 -191z" />
    <glyph glyph-name="zcaron" unicode="&#x17e;" horiz-adv-x="937" 
d="M43 0v47l606 821h-184q-142 0 -190 -24q-49 -24 -77 -58t-57 -84h-53v248h21q23 0 31 -4t26 -14q19 -10 90 -10h584v-50l-598 -819h215q146 0 223 58t127 184h49l-49 -295h-764zM647 1372h90l-174 -303h-186l-176 303h94l194 -190z" />
    <glyph glyph-name="florin" unicode="&#x192;" horiz-adv-x="1110" 
d="M1030 1421q68 0 107 -28.5t39 -69.5t-20.5 -61.5t-50.5 -20.5t-48.5 17.5t-32.5 38t-29.5 38t-47.5 17.5t-60.5 -55.5t-63.5 -200.5l-53 -215h182l-12 -54h-182l-156 -649q-140 -563 -428 -563q-68 0 -107.5 27.5t-39.5 68.5t20.5 62.5t48.5 21.5t45 -17.5t31 -38
t31 -37.5t41 -17q49 0 83 49t70 194l217 899h-202l12 54h203l10 45q53 240 156.5 367.5t236.5 127.5z" />
    <glyph glyph-name="circumflex" unicode="&#x2c6;" 
d="M162 1069h-90l174 303h186l176 -303h-94l-195 191z" />
    <glyph glyph-name="caron" unicode="&#x2c7;" 
d="M518 1372h90l-174 -303h-186l-176 303h94l194 -190z" />
    <glyph glyph-name="breve" unicode="&#x2d8;" 
d="M341 1219q191 0 224 143h29q0 -112 -72.5 -197.5t-178.5 -85.5t-178.5 78.5t-76.5 204.5h29q33 -143 224 -143z" />
    <glyph glyph-name="dotaccent" unicode="&#x2d9;" 
d="M340 1321q41 0 70.5 -29.5t29.5 -70.5t-29.5 -71t-70.5 -30t-70.5 30t-29.5 71t29.5 70.5t70.5 29.5z" />
    <glyph glyph-name="ring" unicode="&#x2da;" 
d="M217 1370q51 51 124 51t124 -51.5t51 -123.5t-51.5 -123.5t-122.5 -51.5t-123.5 52.5t-52.5 124t51 122.5zM227 1247q0 -47 33 -80.5t80 -33.5t81 33.5t34 80.5t-34 80t-81 33t-80 -33t-33 -80z" />
    <glyph glyph-name="ogonek" unicode="&#x2db;" 
d="M262 -150q0 -49 34 -80.5t96 -31.5t128 31v-84q-110 -65 -205.5 -32.5t-123 85.5t-27.5 95t18.5 78t71.5 89h84q-76 -69 -76 -150z" />
    <glyph glyph-name="tilde" unicode="&#x2dc;" 
d="M496 1243q68 0 112 107l56 -31q-18 -106 -76.5 -165.5t-103.5 -59.5q-64 0 -163.5 53t-133.5 53t-58.5 -22.5t-52.5 -81.5l-58 24q14 92 64.5 160t114.5 68t133 -36t104 -52.5t62 -16.5z" />
    <glyph glyph-name="hungarumlaut" unicode="&#x2dd;" 
d="M678 1368q51 0 51 -25t-22 -49l-203 -229h-72l88 233q18 46 38.5 58t70.5 12h49zM414 1368q51 0 51 -26t-23 -48l-202 -229h-72l88 233q18 46 38.5 58t70.5 12h49z" />
    <glyph glyph-name="endash" unicode="&#x2013;" horiz-adv-x="1024" 
d="M1036 578v-132h-1048v132h1048z" />
    <glyph glyph-name="emdash" unicode="&#x2014;" horiz-adv-x="2048" 
d="M2060 578v-132h-2072v132h2072z" />
    <glyph glyph-name="quoteleft" unicode="&#x2018;" horiz-adv-x="555" 
d="M223 1153q0 -82 56 -82l49 4q51 0 76.5 -29.5t25.5 -70.5t-31 -71t-79 -30q-87 0 -143 65.5t-56 162.5q0 96 76.5 185t208.5 134l18 -51q-201 -72 -201 -217z" />
    <glyph glyph-name="quoteright" unicode="&#x2019;" horiz-adv-x="555" 
d="M332 1143q0 82 -56 82l-49 -4q-51 0 -76.5 29.5t-25.5 70.5t31.5 70.5t77.5 29.5q87 0 143.5 -65t56.5 -161q0 -97 -76.5 -186t-207.5 -135l-19 52q201 72 201 217z" />
    <glyph glyph-name="quotesinglbase" unicode="&#x201a;" horiz-adv-x="555" 
d="M332 -47q0 82 -56 82l-49 -4q-51 0 -76.5 29.5t-25.5 70.5t31.5 70.5t77.5 29.5q89 0 144.5 -65t55.5 -162q0 -96 -76.5 -185t-207.5 -134l-19 51q201 72 201 217z" />
    <glyph glyph-name="quotedblleft" unicode="&#x201c;" horiz-adv-x="1067" 
d="M713 1153q0 -82 55 -82l49 4q51 0 77 -29.5t26 -70.5t-32 -71t-79 -30q-87 0 -143 65.5t-56 162.5q0 96 77 185t208 134l18 -51q-200 -71 -200 -217zM211 1153q0 -37 14.5 -59.5t40.5 -22.5l49 4q51 0 77 -29.5t26 -70.5t-32 -71t-79 -30q-87 0 -142.5 65t-55.5 162
t76.5 186t207.5 134l19 -51q-201 -72 -201 -217z" />
    <glyph glyph-name="quotedblright" unicode="&#x201d;" horiz-adv-x="1067" 
d="M856 1143q0 37 -14.5 59.5t-40.5 22.5l-49 -4q-51 0 -77 29.5t-26 70.5t32 70.5t78 29.5q88 0 143.5 -64.5t55.5 -161.5t-76.5 -186t-207.5 -135l-19 52q201 72 201 217zM354 1143q0 82 -55 82l-49 -4q-51 0 -77 29.5t-26 70.5t32 70.5t78 29.5q88 0 144 -65t56 -161
q0 -97 -77 -186t-208 -135l-18 52q200 71 200 217z" />
    <glyph glyph-name="quotedblbase" unicode="&#x201e;" horiz-adv-x="1067" 
d="M825 -47q0 82 -55 82l-49 -4q-51 0 -77 29.5t-26 70.5t32 70.5t78 29.5q89 0 144.5 -65t55.5 -162q0 -96 -77 -185t-208 -134l-18 51q200 71 200 217zM324 -47q0 82 -56 82l-49 -4q-51 0 -76.5 29.5t-25.5 70.5t31.5 70.5t77.5 29.5q89 0 144.5 -65t55.5 -162
q0 -96 -77 -185t-208 -134l-18 51q201 72 201 217z" />
    <glyph glyph-name="dagger" unicode="&#x2020;" horiz-adv-x="1067" 
d="M424 1352q0 70 108 70t109 -56q0 -28 -6 -84l-62 -440l314 57q28 8 62 8t47.5 -23.5t13.5 -82.5q0 -88 -64 -88q-24 0 -72 10l-301 55l62 -997q4 -54 4 -101t-23.5 -63t-106.5 -15.5t-83 60.5q0 44 4 74l64 1042l-301 -55q-52 -10 -79 -10q-59 0 -59 97q0 50 14.5 73.5
t53.5 23.5q6 0 28.5 -4t51.5 -8l291 -53l-62 440q-8 58 -8 70z" />
    <glyph glyph-name="daggerdbl" unicode="&#x2021;" horiz-adv-x="1003" 
d="M133 801q-57 0 -57 92t48 92q32 0 56 -6l287 -55l-57 346q-8 48 -8 82t20 51.5t80 17.5t79 -15.5t19 -53.5t-6 -82l-57 -346l286 55q24 6 51 6t39.5 -19.5t12.5 -68.5q0 -96 -56 -96q-19 0 -59 10l-274 53l36 -354l-36 -354l274 55q32 8 59 8q55 0 56 -86
q0 -59 -12.5 -78.5t-35.5 -19.5t-90 14l-251 47l57 -344q6 -38 6 -77t-18 -56.5t-78 -17.5t-81.5 15t-21.5 47t2.5 45t6.5 44l57 344l-266 -49q-49 -12 -73 -12q-52 0 -52 92t57 92q26 0 60 -8l274 -55l-37 354l37 354l-274 -53q-35 -6 -42.5 -8t-17.5 -2z" />
    <glyph glyph-name="bullet" unicode="&#x2022;" horiz-adv-x="575" 
d="M286.5 940q55.5 0 103.5 -20.5t84 -56.5t56.5 -84t20.5 -103t-20.5 -103.5t-56.5 -84t-84 -56t-103.5 -20.5t-103.5 20.5t-84 56t-56 84t-20 103.5t20 103t56 84t84 56.5t103.5 20.5z" />
    <glyph glyph-name="ellipsis" unicode="&#x2026;" horiz-adv-x="2048" 
d="M342 203q47 0 80 -33t33 -80t-33 -80t-80 -33t-80 33t-33 80t33 80t80 33zM1024 203q47 0 80 -33t33 -80t-33 -80t-80 -33t-80 33t-33 80t33 80t80 33zM1706 203q47 0 80 -33t33 -80t-33 -80t-80 -33t-80 33t-33 80t33 80t80 33z" />
    <glyph glyph-name="perthousand" unicode="&#x2030;" horiz-adv-x="2283" 
d="M1694 335q0 159 73.5 253t197.5 94t198.5 -94t74.5 -253t-74.5 -253t-198.5 -94t-197.5 94t-73.5 253zM1808 335q0 -161 37 -231.5t121 -70.5t121 70.5t37 231.5t-37 231.5t-121 70.5t-121 -70.5t-37 -231.5zM958 335q0 159 74 253t198 94t198.5 -94t74.5 -253
t-74.5 -253t-198.5 -94t-198 94t-74 253zM1073 335q0 -161 37 -231.5t121 -70.5t121 70.5t37 231.5t-37 231.5t-121 70.5t-121 -70.5t-37 -231.5zM45 1007q0 159 73.5 253t197.5 94t199 -95t75 -253t-75 -252.5t-199 -94.5t-197.5 94.5t-73.5 253.5zM160 1007
q0 -161 36.5 -231.5t120.5 -70.5t121 70.5t37 231.5t-37 231.5t-121 70.5t-120.5 -70.5t-36.5 -231.5zM1184 1421h86l-918 -1507h-88z" />
    <glyph glyph-name="guilsinglleft" unicode="&#x2039;" horiz-adv-x="491" 
d="M428 53h-35l-301 459l301 459h35l-178 -459z" />
    <glyph glyph-name="guilsinglright" unicode="&#x203a;" horiz-adv-x="491" 
d="M63 971h35l301 -459l-301 -459h-35l179 459z" />
    <glyph glyph-name="fraction" unicode="&#x2044;" horiz-adv-x="256" 
d="M557 1421h86l-917 -1507h-88z" />
    <glyph glyph-name="fraction" unicode="&#x2215;" horiz-adv-x="256" 
d="M557 1421h86l-917 -1507h-88z" />
    <glyph glyph-name="trademark" unicode="&#x2122;" horiz-adv-x="1855" 
d="M477 1296h-59v-581q0 -83 20.5 -107t83.5 -24v-35h-403v35q70 4 86 25.5t16 105.5v581h-61q-96 0 -137 -32.5t-56 -118.5h-33l13 211h745l15 -211h-35q-10 88 -53.5 119.5t-141.5 31.5zM1921 1356v-37q-68 0 -87 -25t-19 -110v-469q0 -82 14 -100.5t35.5 -23.5t56.5 -7
v-35h-420v35q75 0 96 24t21 107v495h-4l-307 -661h-31l-307 655h-4v-502q0 -77 22.5 -97.5t102.5 -20.5v-35h-297v35q70 0 90 23t20 108v469q0 88 -15.5 107.5t-37 23.5t-57.5 4v37h317l256 -543l252 543h303z" />
    <glyph glyph-name="minus" unicode="&#x2212;" horiz-adv-x="1366" 
d="M1223 594v-109h-1080v109h1080z" />
  </font>
</defs>
</svg>
